<svg id="Layer_1" data-name="Layer 1" xmlns="http://www.w3.org/2000/svg" viewBox="0 0 400 300" data-imageid="analysis-two-color-793a1" imageName="Analysis" class="illustrations_image" style="width: 188px;"><title>#1 analysis</title><rect x="178.47" y="165.73" width="43" height="10.95" fill="#fff" opacity="0.35"/><rect x="79.78" y="49.27" width="154" height="137.4" fill="#e6e6e6"/><path d="M199.15,125.21s-8.18,10.9,3.32,15.56,31.31,13.4,31.31,13.4V140.66l-21-8.74Z" opacity="0.08"/><rect x="123.83" y="151.63" width="7.57" height="35.05" opacity="0.08"/><rect x="48.62" y="151.63" width="75.71" height="46.16" fill="#f2f2f2"/><path d="M271.16,82.27s-23,7.53-15.55,50.62l-42.85-5.09L211,135.48l61.17,13.93,11.92-8.18Z" fill="#68e1fd" class="target-color"/><path d="M271.16,82.27s-23,7.53-15.55,50.62l-42.85-5.09L211,135.48l61.17,13.93,11.92-8.18Z" fill="#fff" opacity="0.2"/><path d="M276.92,50.21s-.67,7.69.62,12.8a3.88,3.88,0,0,0,4.73,2.79c2.57-.69,5.83-2.36,6.69-6.44l2.31-6.74a6.92,6.92,0,0,0-3-7.4C283.87,42.1,277.09,45.51,276.92,50.21Z" fill="#f4a28c"/><ellipse cx="290.49" cy="257.5" rx="56.71" ry="10.74" fill="#e6e6e6" opacity="0.45"/><path d="M297.05,241.72s1.19,4-1.47,6.33-1.36,5.68,1.74,4.51,7.26-9.33,7.26-9.33l-3.22-4Z" fill="#68e1fd" class="target-color"/><polygon points="290.12 54.4 298.91 73.78 287.47 82.27 285.18 64.04 290.12 54.4" fill="#f4a28c"/><path d="M290.52,73.4c1.94-.46,3.87-1,5.77-1.61,8.54-2.73,34.79-9.39,42.29,8.94,9,22-18,89-18,89l-46-4-11-58S254.1,82.13,290.52,73.4Z" fill="#68e1fd" class="target-color"/><path d="M314.07,96s-7,22.52,0,36.86H268.35l6.23,32.84,46,4,9.82-27.79L333.58,119Z" opacity="0.08"/><polygon points="243.18 104.43 243.18 146.5 279.9 151.17 279.9 109.77 243.18 104.43" fill="#ffd200"/><path d="M340.09,86.75c3.32,10.11,6,26.5,2.42,50.38a6.12,6.12,0,0,1-6.47,5.21l-51.46-3.61v-9l41-3s-13-21.41-11.65-37C315.18,75.22,335.54,72.91,340.09,86.75Z" fill="#68e1fd" class="target-color"/><path d="M340.09,86.75c3.32,10.11,6,26.5,2.42,50.38a6.12,6.12,0,0,1-6.47,5.21l-51.46-3.61v-9l41-3s-13-21.41-11.65-37C315.18,75.22,335.54,72.91,340.09,86.75Z" fill="#fff" opacity="0.2"/><path d="M274.58,165.73l-12.53,15.41a28.8,28.8,0,0,0-1.5,34.29l11,16.3,7-4-5.75-16.66a16.91,16.91,0,0,1,6.6-19.58l7.15-4.76s23-2,34-17Z" fill="#24285b"/><path d="M286.58,172.73l-3.72,23a49.77,49.77,0,0,0,3.21,27.18l8.25,19.71,9.56-3.55-5.32-21.77a20.25,20.25,0,0,1,1.4-13.53l1.1-2.3a85.9,85.9,0,0,1,14.58-21,18.17,18.17,0,0,0,4.94-10.7Z" fill="#24285b"/><path d="M278.83,50.53a31.21,31.21,0,0,0,7.11-.54,6.41,6.41,0,0,0,0,7,5.24,5.24,0,0,0,6.33,2.09l-.13-9.91a7.87,7.87,0,0,0-4-7,29,29,0,0,0-3.31-1.62c-2.85-1.14-7,.76-9.59-1.17a1.86,1.86,0,0,0-2.95,1.22c-.45,3,.09,7.76,4.17,9.41A7.23,7.23,0,0,0,278.83,50.53Z" fill="#24285b"/><path d="M285.11,56.81s.06-3,2.29-2.74,2.18,4.52-.86,4.92Z" fill="#f4a28c"/><path d="M274,130.61s-9.38-2.5-10.25,8.5c-.35,4.35-10.91,4.94-20.61.81v6.58l36.72,4.67V135.48Z" opacity="0.08"/><path d="M284.58,131.23a50.65,50.65,0,0,0-10.15-3.38,2.37,2.37,0,0,0-2.85,2.32V133a2.37,2.37,0,0,0,2.5,2.36,16.78,16.78,0,0,1,10.5,2.67Z" fill="#f4a28c"/><path d="M273.05,230.89s1.19,4-1.47,6.33-1.36,5.68,1.74,4.51,7.26-9.33,7.26-9.33l-3.22-4Z" fill="#68e1fd" class="target-color"/><path d="M276.74,55.07l-2.14,3a1.22,1.22,0,0,0,.77,1.93l2.95.56Z" fill="#f4a28c"/><path d="M285.25,64.56a9.51,9.51,0,0,0,3.51-3.62s2.74,4.81-2.86,8.84Z" fill="#ce8172" opacity="0.31"/><polygon points="247.51 109.94 247.51 121.98 262.47 123.98 262.47 112.04 247.51 109.94" opacity="0.08"/><polygon points="238.55 130.86 236.26 141.23 243.18 142.8 243.18 131.41 238.55 130.86" opacity="0.08"/><path d="M212.76,127.8s-6.37-4.44-12.41-6a1.81,1.81,0,0,0-2.21,1.41h0a1.82,1.82,0,0,0,1,2l4.17,2a1.68,1.68,0,0,1,.87,2.06l-.59,1.68a2.82,2.82,0,0,0,2.21,3.71l5.2.87Z" fill="#f4a28c"/><circle cx="137.42" cy="110.13" r="29.69" opacity="0.08"/><circle cx="129.07" cy="103.31" r="29.69" fill="#fff"/><path d="M131.92,73.75l-2.85,29.56,29.61-2.19S157.81,77.4,131.92,73.75Z" fill="#24285b"/><circle cx="89.89" cy="58.39" r="3.42" fill="#24285b"/><circle cx="100.06" cy="58.39" r="3.42" fill="#68e1fd" class="target-color"/><circle cx="109.63" cy="58.39" r="3.42" fill="#ffd200"/><rect x="195.72" y="73.92" width="25.75" height="6.5" opacity="0.08"/><rect x="195.72" y="86.47" width="25.75" height="6.5" opacity="0.08"/><rect x="195.72" y="100.06" width="25.75" height="6.5" opacity="0.08"/><rect x="179.97" y="73.92" width="8.5" height="6.5" fill="#24285b"/><rect x="179.97" y="86.47" width="8.5" height="6.5" fill="#ffd200"/><rect x="179.97" y="100.06" width="8.5" height="6.5" fill="#68e1fd" class="target-color"/><path d="M271.16,82.27s21.59,4.09,26.64-10.94l-11.31,3.16A44.37,44.37,0,0,0,271.16,82.27Z" opacity="0.08"/><rect x="199.6" y="160.75" width="17.25" height="12.92" transform="translate(416.44 334.42) rotate(-180)" fill="#24285b"/><rect x="156.11" y="160.75" width="43.54" height="12.92" transform="translate(355.76 334.42) rotate(-180)" fill="#fff" opacity="0.56" style="isolation:isolate"/><path d="M129.07,103.31l20.86,21.13s10.36-7.94,8.75-23.32Z" fill="#ffd200"/><polyline points="63.75 180.27 71.02 173 82.71 177.93 89.5 179.63 99.95 170.5 110.49 165.73" fill="none" stroke="#a5a5a5" stroke-linecap="round" stroke-linejoin="round" stroke-width="2"/><rect x="57.46" y="157.17" width="15.17" height="4" fill="#a5a5a5" opacity="0.21"/><circle cx="63.58" cy="179.88" r="3.21" fill="#fff"/><circle cx="89.68" cy="178.79" r="3.21" fill="#ffd200"/><circle cx="110.77" cy="165.71" r="3.21" fill="#24285b"/><path d="M129.07,103.31l12.23,27.06a25.18,25.18,0,0,0,8.63-5.93Z" fill="#68e1fd" class="target-color"/></svg>