<svg width="18" height="19" viewBox="0 0 18 19" fill="none" xmlns="http://www.w3.org/2000/svg">
<path d="M2.66252 9.49996L8.17502 15.0125C8.36252 15.2 8.45315 15.4187 8.4469 15.6687C8.44065 15.9187 8.34377 16.1375 8.15627 16.325C7.96877 16.5125 7.75002 16.6062 7.50002 16.6062C7.25002 16.6062 7.03127 16.5125 6.84377 16.325L1.06877 10.5687C0.918774 10.4187 0.806274 10.25 0.731274 10.0625C0.656274 9.87496 0.618774 9.68746 0.618774 9.49996C0.618774 9.31246 0.656274 9.12496 0.731274 8.93746C0.806274 8.74996 0.918774 8.58121 1.06877 8.43121L6.84377 2.65621C7.03127 2.46871 7.25315 2.37809 7.5094 2.38434C7.76565 2.39059 7.98752 2.48746 8.17502 2.67496C8.36252 2.86246 8.45627 3.08121 8.45627 3.33121C8.45627 3.58121 8.36252 3.79996 8.17502 3.98746L2.66252 9.49996Z" fill="#0F3972"/>
</svg>
