<svg id="Layer_1" data-name="Layer 1" xmlns="http://www.w3.org/2000/svg" xmlns:xlink="http://www.w3.org/1999/xlink" viewBox="0 0 400 300" data-imageid="calendar-isometric" imageName="Calendar" class="illustrations_image" style="width: 188px;"><defs><linearGradient id="linear-gradient" x1="207.02" y1="269.86" x2="234.41" y2="231.27" gradientUnits="userSpaceOnUse"><stop offset="0.01" stop-color="#96d88d"/><stop offset="0.99" stop-color="#39b54a"/></linearGradient><linearGradient id="linear-gradient-2" x1="72.96" y1="247.43" x2="94.14" y2="217.57" xlink:href="#linear-gradient"/><linearGradient id="linear-gradient-3" x1="273.29" y1="192.75" x2="296.95" y2="159.41" xlink:href="#linear-gradient"/><linearGradient id="linear-gradient-4" x1="174.46" y1="263.77" x2="190.23" y2="241.54" xlink:href="#linear-gradient"/></defs><title>15_Calendar_isometric</title><path d="M68.3,133.19H326.9a8.4,8.4,0,0,1,8,5.88l34.92,110.78a8.4,8.4,0,0,1-8,10.93H38.18a8.4,8.4,0,0,1-8.11-10.61L60.19,139.39A8.4,8.4,0,0,1,68.3,133.19Z" fill="#96d88d"/><polygon points="240.82 260.89 260.17 243.67 256.8 236.89 245.4 234.75 242.78 241.53 226.99 239.58 178.91 260.77 179.63 260.89 240.82 260.89" fill="url(#linear-gradient)"/><polyline points="77.01 203.12 38.12 227.69 79.92 260.77 130.38 235.34" fill="url(#linear-gradient-2)"/><polyline points="279.08 164.83 252.92 187.67 288.4 197.46 317.08 164.83" fill="url(#linear-gradient-3)"/><path d="M311,130.94c-1.1-2.36-5.95-4.13-11.77-4.13s-10.91,1.87-11.84,4.32c-6.84,9.58-13.58,25.18-5.17,35.64,4,5,10.31,7.38,16.54,7.48h1c6.23-.1,12.52-2.49,16.53-7.48C324.75,156.24,317.87,140.5,311,130.94Z" fill="#68e1fd" class="target-color"/><ellipse cx="299.21" cy="131.95" rx="12.01" ry="5.14" opacity="0.5"/><path d="M313.23,88.26a99.33,99.33,0,0,0-13.33,41.14A287.3,287.3,0,0,0,295.08,77c-.11-.61-1-.35-.94.26a285.93,285.93,0,0,1,4.73,58.59.46.46,0,0,0,.62.45c0,.14,0,.29,0,.43a.49.49,0,0,0,1,0,98.31,98.31,0,0,1,13.63-48A.49.49,0,0,0,313.23,88.26Z" fill="#fe6162"/><path d="M305.64,104.25S313.07,80.36,329,71.52c0,0-3.23,4.74-1.72,8.62s3.88,10.78-3.66,14.65-11.85,0-11.21,7.54,3.63,11.21-1.2,14.87-9,6.85-10.56,14.74C300.66,131.95,302.48,112.19,305.64,104.25Z" fill="#fe6162"/><path d="M298.56,101.73S295.47,65,289,55.75a17.06,17.06,0,0,1-1.81,10.33c-2.8,5.31-5.8,7.15-4.19,14.07s8.17,5.54,7.55,12.46-6.1,5.61-3.36,14.34,12,14.47,12,14.47" fill="#fe6162"/><path d="M107.35,245.58l-45.2-27.4a8.26,8.26,0,0,1-3.82-8.12l15-117.34Z" fill="#d34651"/><polygon points="60.98 217.18 115.81 180.04 107.36 245.58 60.98 217.18" fill="#7f252b"/><path d="M73.41,95.31l31,146.4a5.7,5.7,0,0,0,8.43,3.76l113.25-65.38a6.65,6.65,0,0,0,3.24-6.82l-23.82-147a8.5,8.5,0,0,0-12.64-6L77.07,87.11A7.64,7.64,0,0,0,73.41,95.31Z" fill="#fe6162"/><path d="M89.54,71.82c-5.3,0-9.61,4.86-9.61,10.83a12,12,0,0,0,.4,3l.4-.25c1.07-.69,2.17-1.35,3.23-2,0-.24,0-.48,0-.73,0-3.77,2.52-6.83,5.62-6.83s5.62,3.07,5.62,6.83a7.17,7.17,0,0,1-2.93,6q.38,2,.78,4.09a10.88,10.88,0,0,0,6.14-10.08C99.15,76.67,94.84,71.82,89.54,71.82Z" fill="#42210b"/><path d="M119.55,54.23c-5.3,0-9.61,4.86-9.61,10.83a12,12,0,0,0,.4,3l.4-.25c1.07-.69,2.17-1.35,3.23-2,0-.24,0-.48,0-.73,0-3.77,2.52-6.83,5.62-6.83s5.62,3.07,5.62,6.83a7.17,7.17,0,0,1-2.93,6q.38,2,.78,4.09a10.88,10.88,0,0,0,6.14-10.08C129.16,59.08,124.85,54.23,119.55,54.23Z" fill="#42210b"/><path d="M149.55,36.78c-5.3,0-9.61,4.86-9.61,10.83a12,12,0,0,0,.4,3l.4-.25c1.07-.69,2.17-1.35,3.23-2,0-.24,0-.48,0-.73,0-3.77,2.52-6.83,5.62-6.83s5.62,3.07,5.62,6.83a7.17,7.17,0,0,1-2.93,6q.38,2,.78,4.09a10.88,10.88,0,0,0,6.14-10.08C159.17,41.64,154.85,36.78,149.55,36.78Z" fill="#42210b"/><path d="M175.18,21.95c-5.3,0-9.61,4.86-9.61,10.83a12,12,0,0,0,.4,3l.4-.25c1.07-.69,2.17-1.35,3.23-2,0-.24,0-.48,0-.73,0-3.77,2.52-6.83,5.62-6.83s5.62,3.07,5.62,6.83a7.17,7.17,0,0,1-2.93,6q.38,2,.78,4.09a10.88,10.88,0,0,0,6.14-10.08C184.8,26.8,180.48,21.95,175.18,21.95Z" fill="#42210b"/><path d="M93.26,111.62c3.63-2,10.43-5.75,14.87-8.17a3.81,3.81,0,0,1,5.5,2.39l4.2,16.1a3.81,3.81,0,0,1-1.84,4.3l-15.27,8.43a3.81,3.81,0,0,1-5.55-2.48l-3.75-16.39A3.8,3.8,0,0,1,93.26,111.62Z" fill="#68e1fd" class="target-color"/><path d="M121.49,95.54c3.63-2,10.43-5.75,14.87-8.17a3.81,3.81,0,0,1,5.5,2.39l4.2,16.1a3.81,3.81,0,0,1-1.84,4.3l-15.27,8.43a3.81,3.81,0,0,1-5.55-2.48l-3.75-16.39A3.8,3.8,0,0,1,121.49,95.54Z" fill="#fff"/><path d="M149.81,79.46c3.63-2,10.43-5.75,14.87-8.17a3.81,3.81,0,0,1,5.5,2.39l4.2,16.1a3.81,3.81,0,0,1-1.84,4.3l-15.27,8.43a3.81,3.81,0,0,1-5.55-2.48L148,83.63A3.8,3.8,0,0,1,149.81,79.46Z" fill="#68e1fd" class="target-color"/><path d="M178.13,63.39c3.63-2,10.43-5.75,14.87-8.17a3.81,3.81,0,0,1,5.5,2.39l4.2,16.1a3.81,3.81,0,0,1-1.84,4.3l-15.27,8.43A3.81,3.81,0,0,1,180,83.94l-3.75-16.39A3.8,3.8,0,0,1,178.13,63.39Z" fill="#fff"/><path d="M101.09,149.6c3.63-2,10.43-5.75,14.87-8.17a3.81,3.81,0,0,1,5.5,2.39l4.2,16.1a3.81,3.81,0,0,1-1.84,4.3l-15.27,8.43a3.81,3.81,0,0,1-5.55-2.48l-3.75-16.39A3.8,3.8,0,0,1,101.09,149.6Z" fill="#fff"/><path d="M129.13,133.33c3.63-2,10.43-5.75,14.87-8.17a3.81,3.81,0,0,1,5.5,2.39l4.2,16.1a3.81,3.81,0,0,1-1.84,4.3l-15.27,8.43a3.81,3.81,0,0,1-5.55-2.48l-3.75-16.39A3.8,3.8,0,0,1,129.13,133.33Z" fill="#68e1fd" class="target-color"/><path d="M157.64,117.44c3.63-2,10.43-5.75,14.87-8.17a3.81,3.81,0,0,1,5.5,2.39l4.2,16.1a3.81,3.81,0,0,1-1.84,4.3l-15.27,8.43a3.81,3.81,0,0,1-5.55-2.48l-3.75-16.39A3.8,3.8,0,0,1,157.64,117.44Z" fill="#fff"/><path d="M186,101.36c3.63-2,10.43-5.75,14.87-8.17a3.81,3.81,0,0,1,5.5,2.39l4.2,16.1a3.81,3.81,0,0,1-1.84,4.3l-15.27,8.43a3.81,3.81,0,0,1-5.55-2.48l-3.75-16.39A3.8,3.8,0,0,1,186,101.36Z" fill="#68e1fd" class="target-color"/><path d="M111,189.54c3.63-2,10.43-5.75,14.87-8.17a3.81,3.81,0,0,1,5.5,2.39l4.2,16.1a3.81,3.81,0,0,1-1.84,4.3l-15.27,8.43a3.81,3.81,0,0,1-5.55-2.48l-3.75-16.39A3.8,3.8,0,0,1,111,189.54Z" fill="#68e1fd" class="target-color"/><path d="M139.21,173.46c3.63-2,10.43-5.75,14.87-8.17a3.81,3.81,0,0,1,5.5,2.39l4.2,16.1a3.81,3.81,0,0,1-1.84,4.3l-15.27,8.43a3.81,3.81,0,0,1-5.55-2.48l-3.75-16.39A3.8,3.8,0,0,1,139.21,173.46Z" fill="#68e1fd" class="target-color"/><path d="M167.53,157.39c3.63-2,10.43-5.75,14.87-8.17a3.81,3.81,0,0,1,5.5,2.39l4.2,16.1a3.81,3.81,0,0,1-1.84,4.3L175,180.43a3.81,3.81,0,0,1-5.55-2.48l-3.75-16.39A3.8,3.8,0,0,1,167.53,157.39Z" fill="#fff"/><path d="M195.85,141.31c3.63-2,10.43-5.75,14.87-8.17a3.81,3.81,0,0,1,5.5,2.39l4.2,16.1a3.81,3.81,0,0,1-1.84,4.3l-15.27,8.43a3.81,3.81,0,0,1-5.55-2.48L194,145.48A3.8,3.8,0,0,1,195.85,141.31Z" fill="#68e1fd" class="target-color"/><path d="M196.41,237.8c.41-.56,1.75-2.86,2.19-3.39L221.81,94.33s-10.13,1.38-11.49-2.18L185.68,231.39c.28,2.12.47,4.24.63,6.37l7.78,3A12.85,12.85,0,0,1,196.41,237.8Z" fill="#7f252b"/><path d="M198.6,234.4s-8.68,3.36-13-3.71l.63,24.45Z" fill="#e8ca9a"/><path d="M186.28,255.14l-.37-13.28s2.17,3.42,7.28,1.66Z" fill="#7f252b"/><ellipse cx="216.06" cy="93.24" rx="3.3" ry="5.85" transform="translate(84.12 288.1) rotate(-79.24)" fill="#42210b"/><path d="M252.15,240.59l5-1.37-.78-6S251,234.08,252.15,240.59Z" fill="#42210b"/><path d="M258.89,223s1.75,20.4,1.27,20.63-5.23.65-5.23.29-.28-9.28-.28-9.28-2.39,3.94-2.5,5.91c0,0-5.69-3.24-6.75-5.84s2.43-13.49,3.76-14.08" fill="#7f252b"/><path d="M239.89,251.28l5.61-5.95-3.65-4.63S238.42,248.21,239.89,251.28Z" fill="#42210b"/><path d="M248.22,227.69l2.62,24.47s-4.23,1.43-5,1.32a15.87,15.87,0,0,1-3-1.43l-.94-8.17s-2.43,2.43-2,7.39c0-.34-3.87-1.62-4.37-1.85A29,29,0,0,1,231,247c-1.49-1-7-5.59-4-7.41,2.52-1.54,10.72-.81,10.72-.81l.12-10.11" fill="#7f252b"/><path d="M258,140a.58.58,0,0,1,.59-.71,18.82,18.82,0,0,0-2.75-6l-23.69-2.79s-4.76,16.93-6.59,46.11c-1.42,22.62,9.68,56.26,9.68,56.26s11.49,2.91,17-2.76l-.22-4.87a58,58,0,0,0,8.54-.7C263.42,196.44,261.26,168,258,140Z" fill="#ff8f00"/><path d="M252.91,228.8l-3-21c-.95-6.68-2.4-13.55-2.44-20.32s2.29-12.84,3.41-19.3a75.55,75.55,0,0,0,.81-18.93c-.12-1.47-2.23-1.48-2.12,0a73.46,73.46,0,0,1-1.29,21.13c-1.32,6.21-3.17,12.09-2.9,18.55s1.56,13,2.47,19.48l3,21C251.08,230.87,253.12,230.25,252.91,228.8Z" fill="#42210b"/><path d="M228,121.3c-.73-.8-1.48-1.58-2.23-2.35l-.06-.09a66.13,66.13,0,0,0-6.49-6.86l-3-6.49v0a1,1,0,0,0-1.67-.3c-.79.68-.07,3.56.23,4.41s-.24-.68.11.32c.06.17.24.93.39,1a14.08,14.08,0,0,0-5.81-1.5,1.07,1.07,0,0,0-.91,1.59,3,3,0,0,0,.87.82l-.22,0c-1.4-.19-2.47.41-2.06,2a1.05,1.05,0,0,0,.19.38.89.89,0,0,0,.65.63l-.07.18a1.38,1.38,0,0,0-.54,1.14,1.56,1.56,0,0,0,1.7,1.41l.51.08c-.21,1.41,1.06,2.16,2.41,2.4,1.52.27,3,.4,4.52.66l2.83,3.55c.76,1,1.84,3.12,3.14,3.37s1.9-1.79.56-2c.28.05-.18-.27-.28-.41-.25-.33-.51-.64-.78-1a9.35,9.35,0,0,0,2.55,2.26,1.07,1.07,0,0,0,1.55-1.19,14,14,0,0,0-.89-2.35,1.15,1.15,0,0,0,.4-.61l.11.1a1.08,1.08,0,0,0,.7.24l.16.17C227.41,123.81,228.9,122.31,228,121.3Z" fill="#fe6162"/><path d="M248.28,96s-13.66-1.24-16.88,6-1.63,17.46-1.63,17.46l-8.33-6.36s-4.1,5-4.6,8,7.78,12.24,16.09,14.3,23.34,2.66,25.7-2.36,2.53-20.13-.23-25.95S248.28,96,248.28,96Z" fill="#68e1fd" class="target-color"/><path d="M236.17,83.27s-.69,10,2.36,12.34,8.12-1.51,8.12-1.51" fill="#fe6162"/><path d="M238.67,78.26a9.73,9.73,0,0,0-3,4c-2.52,6.31,4.27,14.15,10.33,15.37l3.15-1s4.16-6.13,4.16-9.57a12.68,12.68,0,0,0-3.55-8.92C246.51,75.15,241.88,75.74,238.67,78.26Z" fill="#7f252b"/><path d="M246,97.62s-11.36,32.72-2.8,38.14,25.26.48,22-7.63-16-31.5-16-31.5" fill="#7f252b"/><polygon points="186.28 255.14 167.18 260.77 185.91 260.89 186.28 255.14" fill="url(#linear-gradient-4)"/></svg>