<svg width="31" height="31" viewBox="0 0 31 31" fill="none" xmlns="http://www.w3.org/2000/svg">
<path d="M7.75001 22.346L2.26043 16.8564C2.00209 16.598 1.87831 16.2967 1.88907 15.9522C1.89984 15.6078 2.03439 15.3064 2.29272 15.048C2.55105 14.8112 2.85244 14.6875 3.19689 14.6767C3.54133 14.6659 3.84272 14.7897 4.10105 15.048L8.68647 19.6335L10.4948 21.4418L9.55835 22.346C9.30001 22.5828 8.99862 22.7065 8.65418 22.7173C8.30973 22.7281 8.00835 22.6043 7.75001 22.346ZM15.0479 22.346L9.55835 16.8564C9.32154 16.6196 9.20314 16.3236 9.20314 15.9684C9.20314 15.6131 9.32154 15.3064 9.55835 15.048C9.81668 14.7897 10.1234 14.6605 10.4787 14.6605C10.8339 14.6605 11.1406 14.7897 11.399 15.048L15.9521 19.6012L26.9313 8.622C27.1896 8.36367 27.491 8.23988 27.8354 8.25065C28.1799 8.26141 28.4813 8.39596 28.7396 8.65429C28.9764 8.91263 29.1002 9.21401 29.111 9.55846C29.1217 9.9029 28.9979 10.2043 28.7396 10.4626L16.8563 22.346C16.5979 22.6043 16.2965 22.7335 15.9521 22.7335C15.6077 22.7335 15.3063 22.6043 15.0479 22.346ZM15.9521 15.9522L14.1115 14.1439L19.6011 8.65429C19.8379 8.41749 20.1339 8.29908 20.4891 8.29908C20.8443 8.29908 21.1511 8.41749 21.4094 8.65429C21.6677 8.91263 21.7969 9.2194 21.7969 9.5746C21.7969 9.92981 21.6677 10.2366 21.4094 10.4949L15.9521 15.9522Z" fill="#0F3972"/>
</svg>
