<svg width="100" height="100" viewBox="0 0 100 100" fill="none" xmlns="http://www.w3.org/2000/svg">
<path d="M11.25 5H13.75V2.5H11.25V5ZM2.5 15H5V12.5H2.5V15ZM17.5 22.5H20V20H17.5V22.5ZM15 22.5V21.875L6.25 17.5H2.5C1.8125 17.5 1.22396 17.2552 0.734375 16.7656C0.244792 16.276 0 15.6875 0 15V12.5C0 11.8125 0.244792 11.224 0.734375 10.7344C1.22396 10.2448 1.8125 10 2.5 10H5.375L8.75 6.125V2.5C8.75 1.8125 8.99479 1.22396 9.48438 0.734375C9.97396 0.244792 10.5625 0 11.25 0H13.75C14.4375 0 15.026 0.244792 15.5156 0.734375C16.0052 1.22396 16.25 1.8125 16.25 2.5V5C16.25 5.6875 16.0052 6.27604 15.5156 6.76562C15.026 7.25521 14.4375 7.5 13.75 7.5H10.875L7.5 11.375V15.3125L15.1562 19.125C15.3229 18.6458 15.6198 18.2552 16.0469 17.9531C16.474 17.651 16.9583 17.5 17.5 17.5H20C20.6875 17.5 21.276 17.7448 21.7656 18.2344C22.2552 18.724 22.5 19.3125 22.5 20V22.5C22.5 23.1875 22.2552 23.776 21.7656 24.2656C21.276 24.7552 20.6875 25 20 25H17.5C16.8125 25 16.224 24.7552 15.7344 24.2656C15.2448 23.776 15 23.1875 15 22.5Z" fill="#0F3972"/>
</svg>
