<svg width="20" height="26" viewBox="0 0 20 26" fill="none" xmlns="http://www.w3.org/2000/svg">
<path d="M10 11.75C11.375 11.75 12.5521 11.2604 13.5312 10.2812C14.5104 9.30208 15 8.125 15 6.75V3H5V6.75C5 8.125 5.48958 9.30208 6.46875 10.2812C7.44792 11.2604 8.625 11.75 10 11.75ZM1.25 25.5C0.895833 25.5 0.598958 25.3802 0.359375 25.1406C0.119792 24.901 0 24.6042 0 24.25C0 23.8958 0.119792 23.599 0.359375 23.3594C0.598958 23.1198 0.895833 23 1.25 23H2.5V19.25C2.5 17.9792 2.79688 16.7865 3.39062 15.6719C3.98438 14.5573 4.8125 13.6667 5.875 13C4.8125 12.3333 3.98438 11.4427 3.39062 10.3281C2.79688 9.21354 2.5 8.02083 2.5 6.75V3H1.25C0.895833 3 0.598958 2.88021 0.359375 2.64062C0.119792 2.40104 0 2.10417 0 1.75C0 1.39583 0.119792 1.09896 0.359375 0.859375C0.598958 0.619792 0.895833 0.5 1.25 0.5H18.75C19.1042 0.5 19.401 0.619792 19.6406 0.859375C19.8802 1.09896 20 1.39583 20 1.75C20 2.10417 19.8802 2.40104 19.6406 2.64062C19.401 2.88021 19.1042 3 18.75 3H17.5V6.75C17.5 8.02083 17.2031 9.21354 16.6094 10.3281C16.0156 11.4427 15.1875 12.3333 14.125 13C15.1875 13.6667 16.0156 14.5573 16.6094 15.6719C17.2031 16.7865 17.5 17.9792 17.5 19.25V23H18.75C19.1042 23 19.401 23.1198 19.6406 23.3594C19.8802 23.599 20 23.8958 20 24.25C20 24.6042 19.8802 24.901 19.6406 25.1406C19.401 25.3802 19.1042 25.5 18.75 25.5H1.25Z" fill="#0F3972"/>
</svg>
