<svg width="20" height="15" viewBox="0 0 20 15" fill="none" xmlns="http://www.w3.org/2000/svg">
<path fill-rule="evenodd" clip-rule="evenodd" d="M10.0002 5.48193C9.58149 5.48193 9.1799 5.64828 8.8838 5.94437C8.5877 6.24047 8.42135 6.64207 8.42135 7.06082C8.42135 7.47957 8.5877 7.88117 8.8838 8.17727C9.1799 8.47336 9.58149 8.63971 10.0002 8.63971C10.419 8.63971 10.8206 8.47336 11.1167 8.17727C11.4128 7.88117 11.5791 7.47957 11.5791 7.06082C11.5791 6.64207 11.4128 6.24047 11.1167 5.94437C10.8206 5.64828 10.419 5.48193 10.0002 5.48193ZM6.31616 7.06082C6.31616 6.57702 6.41145 6.09796 6.5966 5.65098C6.78174 5.20401 7.05311 4.79788 7.3952 4.45578C7.7373 4.11368 8.14343 3.84232 8.59041 3.65717C9.03738 3.47203 9.51644 3.37674 10.0002 3.37674C10.484 3.37674 10.9631 3.47203 11.4101 3.65717C11.8571 3.84232 12.2632 4.11368 12.6053 4.45578C12.9474 4.79788 13.2187 5.20401 13.4039 5.65098C13.589 6.09796 13.6843 6.57702 13.6843 7.06082C13.6843 8.0379 13.2962 8.97496 12.6053 9.66586C11.9144 10.3568 10.9773 10.7449 10.0002 10.7449C9.02316 10.7449 8.0861 10.3568 7.3952 9.66586C6.70431 8.97496 6.31616 8.0379 6.31616 7.06082Z" fill="#008BCC"/>
<path fill-rule="evenodd" clip-rule="evenodd" d="M6.66146 3.58411C4.79837 5.50088 4.79837 8.62077 6.66146 10.5375L5.15204 12.0049C2.49424 9.27128 2.49424 4.85038 5.15204 2.11679L6.66146 3.58411ZM13.3391 10.5375C15.2022 8.62077 15.2022 5.50088 13.3391 3.58411L14.8485 2.11679C17.5063 4.85038 17.5063 9.27128 14.8485 12.0049L13.3391 10.5375Z" fill="#008BCC"/>
<path fill-rule="evenodd" clip-rule="evenodd" d="M4.41704 1.49047C3.6844 2.22134 3.10314 3.08956 2.70654 4.04541C2.30994 5.00125 2.10579 6.02595 2.10579 7.0608C2.10579 8.09566 2.30994 9.12035 2.70654 10.0762C3.10314 11.032 3.6844 11.9003 4.41704 12.6311L2.92972 14.1216C2.00104 13.1952 1.26423 12.0947 0.761503 10.883C0.258774 9.67144 0 8.37257 0 7.0608C0 5.74904 0.258774 4.45016 0.761503 3.23856C1.26423 2.02695 2.00104 0.926425 2.92972 0L4.41704 1.49047ZM15.583 12.6311C16.3156 11.9003 16.8969 11.032 17.2935 10.0762C17.6901 9.12035 17.8942 8.09566 17.8942 7.0608C17.8942 6.02595 17.6901 5.00125 17.2935 4.04541C16.8969 3.08956 16.3156 2.22134 15.583 1.49047L17.0703 0C17.999 0.926425 18.7358 2.02695 19.2385 3.23856C19.7412 4.45016 20 5.74904 20 7.0608C20 8.37257 19.7412 9.67144 19.2385 10.883C18.7358 12.0947 17.999 13.1952 17.0703 14.1216L15.583 12.6311Z" fill="#008BCC"/>
</svg>
