<svg id="Layer_1" data-name="Layer 1" xmlns="http://www.w3.org/2000/svg" viewBox="0 0 400 300" data-imageid="oceania-two-color" imageName="Oceania" class="illustrations_image" style="width: 188px;"><title>#137_oceania_twocolour</title><rect x="85.37" y="64.86" width="210.12" height="160.45" fill="#c9c9c9"/><polyline points="148.16 64.94 190.13 30.32 229.19 64.94" fill="none" stroke="#24285b" stroke-miterlimit="10" stroke-width="2"/><rect x="81.59" y="61.5" width="217.35" height="10.08" fill="#ffd200"/><rect x="81.59" y="225.31" width="217.35" height="10.08" fill="#ffd200"/><circle cx="190.13" cy="29.82" r="4.89" fill="#68e1fd" class="target-color"/><rect x="102.87" y="86.69" width="175" height="123.37" fill="#fff"/><polygon points="283.71 235.39 283.71 201.35 303.11 201.35 295.99 235.39 283.71 235.39" opacity="0.08"/><rect x="291.82" y="194.2" width="41" height="71.81" fill="#e6e6e6"/><path d="M308.21,183.94s-8.51-2.32-10.37-10.25c0,0,13.2-2.66,13.57,11Z" fill="#68e1fd" opacity="0.58" class="target-color"/><path d="M309.26,183.1s-5.95-9.41-.72-18.2c0,0,10,6.37,5.58,18.22Z" fill="#68e1fd" opacity="0.73" class="target-color"/><path d="M310.79,183.11s3.14-9.94,12.64-11.82c0,0,1.78,6.45-6.15,11.84Z" fill="#68e1fd" class="target-color"/><polygon points="304.61 182.88 306.34 194.69 317.21 194.74 318.81 182.94 304.61 182.88" fill="#24285b"/><ellipse cx="312.32" cy="266.02" rx="41.31" ry="6.96" fill="#e6e6e6" opacity="0.45"/><rect x="245.52" y="99.48" width="23.63" height="25.9" fill="#24285b"/><circle cx="250.92" cy="106.81" r="1.57" fill="#68e1fd" class="target-color"/><circle cx="250.92" cy="112.85" r="1.57" fill="#fff"/><circle cx="250.92" cy="118.9" r="1.57" fill="#ffd200"/><rect x="255.71" y="105.44" width="9.54" height="2.23" fill="#fff" opacity="0.2"/><rect x="255.71" y="111.74" width="9.54" height="2.23" fill="#fff" opacity="0.2"/><rect x="255.71" y="117.91" width="9.54" height="2.23" fill="#fff" opacity="0.2"/><rect x="116.04" y="176.31" width="62.46" height="22.25" fill="#24285b"/><text transform="translate(123.44 191.06)" font-size="11.03" fill="#fff" font-family="Poppins-Bold, Poppins" font-weight="700">Oceania</text><rect x="85.07" y="71.76" width="210.12" height="8.11" opacity="0.08"/><path d="M176.65,155.47c-.25,0-.49.19-.83,0a1.46,1.46,0,0,0,.12-2.14c-.42.66-.42,1.77-1.73,1.59a8,8,0,0,0,1.71-3.77c-.69.54-.94,1.44-1.84,1.76-.49.17-.7.71-1,1.11-.11.16-.13.5-.41.29s-.45-.22-.34-.61a2.4,2.4,0,0,0-1-1.94c-.27-.16-.53-.26-.25-.71s-.55-.3-.49-.71c-.27-.1-.57,0-.83-.13s-.46-.49-.83-.25a.21.21,0,0,1-.29,0c-.73-.83-1.74-.56-2.65-.66a3.59,3.59,0,0,0-2,.49,4.7,4.7,0,0,1-2.91.6c-.5-.09-.84.26-1.23.5-.84.49-1.93.62-2.26,1.77-.06.22-.41.42-.58.33-.61-.31-1.19.14-1.84-.1s-1.67.1-2.51.12a.27.27,0,0,0-.2.12c-.37.78-1.32.69-1.87,1.27s-2.46.37-3.13-.31c-.21-.21-.37-.49-.7-.49-.51,0-.4-.39-.43-.68s0-.49.42-.45a.49.49,0,0,0,.45-.49c0-1.08.4-2.19-.25-3.24a3.72,3.72,0,0,1-.53-2.3,2.12,2.12,0,0,0-.39-1.27c-.68-1.06-.62-2.47-1.48-3.42,0,0,0-.12.05-.18.22-.07.2-.31.3-.46a.11.11,0,0,1,.16,0,0,0,0,0,1,0,0c.08.09.15.26.25.28s.18-.14.2-.27a1.45,1.45,0,0,0-.25-1c-.67-1-1.18-2-.38-3.15a1.14,1.14,0,0,0,.06-.85,1.94,1.94,0,0,1,.33-1.66s.06,0,.07,0c.23.08.16.37.33.49a1.41,1.41,0,0,1,.74-.66l.59-.37a1.58,1.58,0,0,1,1-.77h0c.15-.26.44-.33.66-.49h0c.3-.32.62-.2.94-.05s.55-.07.8-.16a3.57,3.57,0,0,1,2-1c.57-.13,1.15-.12,1.71-.23l.78-.55a.54.54,0,0,1,.31-.3l.21-.3a.79.79,0,0,1,.54-1h0c.4-.43.08-1,.19-1.43a.83.83,0,0,1,.45-.83c.21-.24.29-.62.67-.71a.21.21,0,0,0,.11,0c.28.33.31.79.56,1.15.39-.47-.26-1,.14-1.48l.27,0c.18.22.5.06.67.2a.35.35,0,0,0,.12.07.32.32,0,0,0,0-.14.14.14,0,0,1,.06-.13h0a.28.28,0,0,0,.1-.39.24.24,0,0,0-.1-.1h0a.55.55,0,0,1,.15-.77l.06,0c.08-.15.41.07.39-.26a.35.35,0,0,1,.22-.18c.56.09.24-.23.2-.42,0-.41.34-.33.57-.42h0c.67-.14,1-.87,1.63-1,.21-.06.33-.1.46.09s.32.11.49.16a1.09,1.09,0,0,1,.46.49c0,.12,0,.26.15.3s.49.24.43.58l-.09.28c.07-.06.06-.15.12-.22.22-.37.53-.26.85-.18l.14.07a1.88,1.88,0,0,0,.82,0c.24-.23-.15-.17-.14-.29s-.28-.23-.19-.45,0-.49.32-.54c.15-.23.15-.52.32-.74h0c.46-.22.2-.88.66-1.1h0a1.78,1.78,0,0,1,1.9-1.05c.8.13,1-.08,1.06-.87a.49.49,0,0,1,.21-.26c.14-.08.33-.18.45-.08a5,5,0,0,0,2.46.9,2.74,2.74,0,0,0,2.05,0c.38-.2,1,.46.82.87s-.33,1-.83,1.22a.57.57,0,0,0-.33.66,1.25,1.25,0,0,1-.32,1c-.5.56-.33.94.24,1.27a1.35,1.35,0,0,1,.4.39,1.87,1.87,0,0,0,1,.63,2.4,2.4,0,0,1,1.11.74,1.38,1.38,0,0,0,.74.46,1.81,1.81,0,0,1,.95.68c.82,1,1.66.84,2.16-.34a9.76,9.76,0,0,0,.78-3.81,14,14,0,0,1,1-5.1c.11-.27.25-.57.61-.56s.44.32.49.56a20.26,20.26,0,0,1,.46,2h0a.19.19,0,0,1,.1.19.11.11,0,0,0,.06.13c.49.7.08,1.52.31,2.25v.15c.32.4.66,0,1,.05h0a2.14,2.14,0,0,1,.92.94l.17.13c.39.45-.11,1,.15,1.48a.12.12,0,0,0,0,.14,4.27,4.27,0,0,0,.6,1.51c-.19.14-.22.28,0,.42a.75.75,0,0,1,.35.82,2.63,2.63,0,0,0,.8,2.34l.16,0a13.45,13.45,0,0,0,2,1.35c.15.06.42.2.12.49-.15.14,0,.33.08.42a2.74,2.74,0,0,1,.83,1.88c.08.41.08.41.61.37.26,0,1.08.7,1,.9-.39.86.36,1.4.77,1.69a5.77,5.77,0,0,1,1.3,1.78c.09.14.17.26.34.28.25.17.18.42.18.66v.1c.29.66,0,1.32,0,2a3.78,3.78,0,0,0,.05.75.47.47,0,0,1,.17.33,3.38,3.38,0,0,1-.33,2.58c-.54,1.48-.73,3.07-1.6,4.42-.36.55-1,.76-1.36,1.31-.74,1.07-1.1,2.35-1.87,3.4a7,7,0,0,0-1,2.82,1,1,0,0,1-1.12.89,3.32,3.32,0,0,0-2.74,1,1.65,1.65,0,0,1-2.16.25c0-.49-.37-.15-.55-.25a.24.24,0,0,1-.14-.14c-.08,0,.1-.35-.18-.16a.32.32,0,0,1-.28.19,2.59,2.59,0,0,0-1.31.8h0c-1.12-.49-2.42-.49-3.45-1.26h0a.85.85,0,0,1-.65-.59l-.33-.53a1.11,1.11,0,0,1,.16-1.11v-.17c-.21-.16-.22-.42-.3-.64l-.2-.32-.22-.38c.12,0,.14-.07.09-.13S176.82,155.46,176.65,155.47Z" fill="#68e1fd" class="target-color"/><path d="M191.18,116.56l0,0h-.06a.41.41,0,0,1-.49-.29v0l-.34-.46a.9.9,0,0,1-.59-.66c0-.25-.34-.06-.36-.28-.17-.4-.57-.68-.57-1.16q0-.31-.3-.27a1.33,1.33,0,0,1-.78-.16,1.53,1.53,0,0,0-2.31.54,1.54,1.54,0,0,1-.9.06c-.1,0,0,.14,0,0s0-.05.06,0a1.08,1.08,0,0,1,.5.15c.14.43.28.85-.37,1a.1.1,0,0,0-.12.05h0c-.18.34-.49.23-.77.24a5.29,5.29,0,0,1-1.94-.15h0a1.46,1.46,0,0,1-.23-1.13,4,4,0,0,0-.07-2.24.77.77,0,0,1,.1-.61l.18-1a6.77,6.77,0,0,0,0-2,.35.35,0,0,0,0-.39.87.87,0,0,1,0-.8,4.35,4.35,0,0,0,0-1.44c-.09,0-.09-.1,0-.16s-.17-.21,0-.32a.49.49,0,0,1,.64,0l0,0h.06c.38.13.8.2,1,.59a.11.11,0,0,0,.14,0,8.46,8.46,0,0,1,3.45,1.37,1,1,0,0,1,.41.57h0a.85.85,0,0,1,.86.73c.14.91.84,1.15,1.54,1.42.29.11.63.14.8.49l.22.42c.24.47.15.67-.42.66-.75,0-.85.2-.46.87a1.78,1.78,0,0,0,.32.35,4.49,4.49,0,0,1,1.41,2c.05.18.11.38.35.35.45,0,.9-.13.73.6,0,.13.22.18.38.21s.64-.1.32.46c-.15.24.4.29.67.36.6.31.65.57.17.89-.7.07-1.13-.6-1.78-.64h-.39A5.71,5.71,0,0,0,191.18,116.56Z" fill="#68e1fd" class="target-color"/><path d="M192,109.33l.6,0c.28.19.56-.05.84,0s.28-.49.62-.31A1.55,1.55,0,0,0,196,107.9c.05-.28,0-.63.49-.5l.46-.09c.15.12.45.12.33.43s.09.82-.49.83c0,0-.1.08-.1.11,0,.25.37.6,0,.73-1,.32-1.73,1.44-2.92,1.19a5.83,5.83,0,0,1-2-.94C191.59,109.37,191.71,109.27,192,109.33Z" fill="#68e1fd" class="target-color"/><path d="M213.29,132.76c.32.89,1.24,1.19,1.8,1.85.13.16.41.27.28.49s-.43.07-.57,0a7.52,7.52,0,0,1-2.93-2.83,2.37,2.37,0,0,1-.09-.36l.42.07,0,0h0c.37.07.49.4.7.65C213,132.78,213.17,132.76,213.29,132.76Z" fill="#68e1fd" class="target-color"/><path d="M229.63,128.59a4.34,4.34,0,0,1,.2-.5,1.06,1.06,0,0,1,1.06-.53c.45,0,.5.55.66.88l-.3.34c-.5.33-1,.49-1.45,0Z" fill="#68e1fd" class="target-color"/><path d="M202,111c0,.18,0,.38-.18.49a2.21,2.21,0,0,1-1.43-2.06c.44-.29.61.11.83.34a2,2,0,0,1,.44.75Z" fill="#68e1fd" class="target-color"/><path d="M167.06,118.5c.49-.36,1.1,0,1.64-.27.18-.08.25.31.09.49a1.08,1.08,0,0,1-.93.49h-.16l-.09,0c-.19-.1-.39,0-.58,0s-.15-.28,0-.42Z" fill="#68e1fd" class="target-color"/><path d="M207.41,116.1a2.74,2.74,0,0,1-.46-.29c-.14-.13-.26-.31-.14-.5s.3,0,.45,0c.46.13,1.05,0,1.11.74h0a.8.8,0,0,1-.79,0Z" fill="#68e1fd" class="target-color"/><path d="M215.89,124.87l-.16-.31a.09.09,0,0,0,0-.13v-1c.36.6,1.07.85.8,1.63A.58.58,0,0,1,215.89,124.87Z" fill="#68e1fd" class="target-color"/><path d="M197.48,107a.55.55,0,0,1,.61.17h0a1.19,1.19,0,0,1,0,1.1c-.56.09-.29-.45-.49-.63a.44.44,0,0,1-.17-.5A.34.34,0,0,0,197.48,107Z" fill="#68e1fd" class="target-color"/><path d="M202.89,111.63l-.26-.49c.69,0,.9.59,1.22,1-.4.29-.49-.18-.75-.29Z" fill="#68e1fd" class="target-color"/><path d="M209.32,116.72l.71.31c.19.08.33.25.26.42s-.31.08-.5,0l-.49-.23h0c-.1-.14-.26-.26-.17-.5Z" fill="#68e1fd" class="target-color"/><path d="M206.09,112.91c.24.32.78.36.84.92a2.7,2.7,0,0,1-1-.6c-.17-.12-.14-.26,0-.35A.11.11,0,0,0,206.09,112.91Z" fill="#68e1fd" class="target-color"/><path d="M190.24,104.4c-.21-.18-.84.36-.7-.41h.57C190.27,104.05,190.65,104.09,190.24,104.4Z" fill="#68e1fd" class="target-color"/><path d="M170.32,118.65c-.27-.18-.77.08-.85-.46l.63-.17c.2.1.17.36.32.49h0C170.44,118.61,170.41,118.65,170.32,118.65Z" fill="#68e1fd" class="target-color"/><path d="M195.14,115.74c-.41.1-.67.05-.76-.36C194.7,115.25,194.94,115.38,195.14,115.74Z" fill="#68e1fd" class="target-color"/><path d="M217.5,128c.35-.28.56-.26.56.25C217.83,128.25,217.56,128.37,217.5,128Z" fill="#68e1fd" class="target-color"/><path d="M215.88,133.38c-.3-.19-.14-.49-.13-.73C216,132.86,216.23,133.07,215.88,133.38Z" fill="#68e1fd" class="target-color"/><path d="M195.24,116.1l.3.49a.85.85,0,0,1-.66-.31C194.93,116,195.09,116.05,195.24,116.1Z" fill="#68e1fd" class="target-color"/><path d="M217.94,124c0,.15,0,.31,0,.46a.24.24,0,0,0,0,.15C217.56,124.52,217.56,124.52,217.94,124Z" fill="#68e1fd" class="target-color"/><path d="M196.2,105.88c.23,0,.49-.06.59.2s-.17.12-.27.15C196.4,106.1,196.15,106.12,196.2,105.88Z" fill="#68e1fd" class="target-color"/><path d="M197.13,106.66c.05-.14-.27-.31,0-.37a.55.55,0,0,1,.38.49C197.33,106.8,197.2,106.81,197.13,106.66Z" fill="#68e1fd" class="target-color"/><path d="M170.44,118.5a.49.49,0,0,1-.32-.49c.12-.27.24-.21.36,0Z" fill="#68e1fd" class="target-color"/><path d="M198.12,118.5c.33-.13.52,0,.63.32C198.5,118.79,198.26,118.76,198.12,118.5Z" fill="#68e1fd" class="target-color"/><path d="M216.36,125.38c.34-.15.34.18.5.33a.24.24,0,0,1-.15.09.26.26,0,0,1-.17,0C216.23,125.73,216.23,125.6,216.36,125.38Z" fill="#68e1fd" class="target-color"/><path d="M197.5,115.13c0-.11-.28-.18-.11-.28a.34.34,0,0,1,.5.27Z" fill="#68e1fd" class="target-color"/><path d="M216.54,133.74c.2-.14.34,0,.43.14a.21.21,0,0,1,0,.2c-.12.1-.24,0-.35-.07Z" fill="#68e1fd" class="target-color"/><path d="M202.92,112.58c.05.14.23.24.13.41a.15.15,0,0,1-.14,0c-.24-.08-.18-.27-.15-.45Z" fill="#68e1fd" class="target-color"/><path d="M210.89,172.28l-.06,0h-.07a.83.83,0,0,1-.75-.06,4.27,4.27,0,0,0-1.47-.54.21.21,0,0,0-.15,0,.57.57,0,0,1-.27-.77.47.47,0,0,1,.16-.21,5.32,5.32,0,0,1,1.22-1.24h0c.22-.35.66-.39.95-.65h0a1.27,1.27,0,0,1,.81-.62l.63-.18c.17-.2.35-.39.64-.32l.17,0c.1-.16.31-.19.49-.27h0a12.33,12.33,0,0,1,2.06-1.45h0c.36-.49.61-1.08,1.26-1.33.31-.12.38-.49.49-.78a.67.67,0,0,1,.67-.56.58.58,0,0,1,.5.63v0c0,.56.3.06.45.11.33-.09.63-.12.68.34a.54.54,0,0,0,.13.49.06.06,0,0,0,0,.09s0,0,0,0a2.28,2.28,0,0,1-1.44,1.32l-.45.5c-.61.24-.43.79-.5,1.24h0a.29.29,0,0,1-.41.05l0-.05h-.32c-.41.11-.74.42-1.18.45-.22.19-.62.21-.6.63a.68.68,0,0,1-.27.51.08.08,0,0,0-.06.09s0,0,0,0a1,1,0,0,1-.63.84c-.39.06-.19.67-.63.69-.21.2-.36.49-.68.57h0C211.84,172.23,211.35,172.16,210.89,172.28Z" fill="#68e1fd" class="target-color"/><path d="M220.57,164.56c.06-.41-.46-.2-.49-.49l.32-.29c1-1.08,1-1.21-.17-2-.65-.44-.65-.58.05-.9a2.61,2.61,0,0,0,1.39-2.36c0-.29-.07-.62.32-.76,0-.15,0-.23.18-.17.35-.08.33.35.62.43l0-.56c.05-.13.1-.27.3-.19s.17.32.15.5c0,.51-.07,1,.56,1.21s1.07.42,1.56-.19a.55.55,0,0,1,.75-.14c.36.27-.1.44-.1.66,0,.78-1,.91-1.1,1.64h-.44a.85.85,0,0,0-.9.72,6.32,6.32,0,0,1-3,2.92l0,.05Z" fill="#68e1fd" class="target-color"/><path d="M182.92,164.28c.14-.22-.28-.42,0-.64a.59.59,0,0,1,.76-.36.7.7,0,0,1,.23.15,3,3,0,0,0,3,0c.5-.18.57-.06.58.45,0,1-.66,1.61-.89,2.46a.47.47,0,0,1-.18.28,2.26,2.26,0,0,0-1,.74.63.63,0,0,1-.85.25.51.51,0,0,1-.16-.13c-.65.08-.45-.56-.69-.81a1.26,1.26,0,0,1-.38-1.16C183.39,165.06,182.76,164.79,182.92,164.28Z" fill="#68e1fd" class="target-color"/><path d="M222.15,157.55l-.18.17c-.61.05-.54-.45-.65-.8.18-.33-.32-.28-.29-.53-.17-.41-.32-.83-.5-1.23s0-.49,0-.75a2.82,2.82,0,0,1,.57.09,1.21,1.21,0,0,1,.92,1.3C222,156.35,221.74,157,222.15,157.55Z" fill="#68e1fd" class="target-color"/><path d="M219.24,164.3a1,1,0,0,0-.67-.35,1.53,1.53,0,0,1,.45-.25c.18,0,.45-.18.56.07S219.48,164.19,219.24,164.3Z" fill="#68e1fd" class="target-color"/><path d="M196.63,139.59l.36-.49a1.7,1.7,0,0,1-.49,1.34h0A.76.76,0,0,1,196.63,139.59Z" fill="#68e1fd" class="target-color"/><path d="M221,156.39c.06.34.65-.15.62.42s-.28-.08-.33.11A.48.48,0,0,1,221,156.39Z" fill="#68e1fd" class="target-color"/><path d="M187.2,161.78c.28.28.55.37.49.7,0,0-.14.07-.19.05C187.24,162.42,187.16,162.23,187.2,161.78Z" fill="#68e1fd" class="target-color"/><path d="M220.3,153.59c.16,0,.24.06.23.23s-.06.21-.18.14-.29,0-.28-.21S220.22,153.61,220.3,153.59Z" fill="#68e1fd" class="target-color"/><path d="M186.42,166.56a.17.17,0,0,1,.12-.2h0l.07.33-.06.26c-.2.26-.36.11-.44-.08S186.29,166.64,186.42,166.56Z" fill="#68e1fd" class="target-color"/><path d="M182.27,162.36v-.08c0-.19-.09-.42.17-.53a.15.15,0,0,1,.13.05c0,.25,0,.49-.28.56Z" fill="#68e1fd" class="target-color"/><path d="M187.85,162.74c0,.25-.27.38-.38.3s0-.25.16-.32A.58.58,0,0,1,187.85,162.74Z" fill="#68e1fd" class="target-color"/><path d="M196.63,139.59a1.65,1.65,0,0,0-.12.85c-.31-.21-.07-.53-.18-.77Z" fill="#68e1fd" class="target-color"/><path d="M196.69,143.48c-.13-.08-.21-.17-.17-.33.15.07.27-.24.38-.05S196.77,143.34,196.69,143.48Z" fill="#68e1fd" class="target-color"/><path d="M223.1,157.23l-.3.2c0-.16-.11-.4.06-.5S223.07,157.09,223.1,157.23Z" fill="#68e1fd" class="target-color"/><path d="M174.45,156.15c-.24,0-.68.2-.65-.25s.53-.33.85-.39.59,0,.56.35S174.74,156.08,174.45,156.15Z" fill="#68e1fd" class="target-color"/><path d="M144.47,141.25c-.49-.27-.49-.27.18-.71a.59.59,0,0,1,.14.38C144.76,141.11,144.74,141.29,144.47,141.25Z" fill="#68e1fd" class="target-color"/><path d="M144.47,141.25a.37.37,0,0,0,.19-.35c.17-.06.26.06.34.18-.09.19.22.45-.07.6-.05,0-.19-.11-.28-.16Z" fill="#68e1fd" class="target-color"/><path d="M145,141.08l-.34-.18v-.36c.38,0,.35.33.49.55H145Z" fill="#68e1fd" class="target-color"/><path d="M208.68,114.5a.88.88,0,0,1,.3,1,.83.83,0,0,1-.49-.61C208.44,114.66,208.39,114.48,208.68,114.5Z" fill="#68e1fd" class="target-color"/><path d="M208.68,114.5c-.15.07-.13.22-.17.34l-.32-1.07C208.75,113.82,208.7,114.17,208.68,114.5Z" fill="#68e1fd" class="target-color"/><path d="M204.42,113.8a.72.72,0,0,1-.68-.29s.09-.22.16-.23c.39,0,.32.36.49.54Z" fill="#68e1fd" class="target-color"/><path d="M205.19,112.38c.12.05.27.09.25.25s-.15.09-.18.07a.45.45,0,0,1-.19-.22C205,112.39,205.09,112.33,205.19,112.38Z" fill="#68e1fd" class="target-color"/><path d="M204.41,113.82l0,.07c0,.21.46.06.38.38a.15.15,0,0,1-.13.07.39.39,0,0,1-.29-.47.19.19,0,0,1,0-.07Z" fill="#68e1fd" class="target-color"/><path d="M175.24,124.74a.72.72,0,0,1,.91.46.4.4,0,0,1,0,.15C175.65,125.48,175.51,125,175.24,124.74Z" fill="#68e1fd" class="target-color"/><path d="M164.32,123.77l.16.16c0,.19,0,.42-.22.54C164.17,124.23,164.08,124,164.32,123.77Z" fill="#68e1fd" class="target-color"/><path d="M160,124.09c.05-.2.37-.2.33-.5.09.16.29.4.25.44C160.44,124.23,160.21,124.05,160,124.09Z" fill="#68e1fd" class="target-color"/><path d="M166.29,123.81l0-.5c.09.19.39.18.39.42C166.64,123.76,166.41,123.78,166.29,123.81Z" fill="#68e1fd" class="target-color"/><path d="M159.05,126l.21-.19c.12.07.34.18.26.29a.3.3,0,0,1-.43,0A.16.16,0,0,1,159.05,126Z" fill="#68e1fd" class="target-color"/><path d="M175.73,122c.57,0,0,.49.29.72s-.15.11-.23.12c-.28,0-.43-.11-.41-.42S175.58,122.07,175.73,122Z" fill="#68e1fd" class="target-color"/><path d="M185.27,113.69c.2.08.09.22,0,.32s-.21.06-.32,0c-.29.11-.49-.09-.8-.33Z" fill="#68e1fd" class="target-color"/><path d="M188.78,113.56l-.33-.32c.16,0,.33-.2.46,0S188.9,113.5,188.78,113.56Z" fill="#68e1fd" class="target-color"/><path d="M232.05,126.18c.44.07.74-.37,1.18-.34-.09.6-.54.81-1,1-.21-.08-.52.31-.64-.11S232,126.48,232.05,126.18Z" fill="#68e1fd" class="target-color"/><path d="M216.71,126.32l-.08-.6h.21c.18.11.39.22.33.46S216.88,126.33,216.71,126.32Z" fill="#68e1fd" class="target-color"/><path d="M217.8,124.82c.17.05.15.19.15.32s0,.23-.18.17-.1-.17-.11-.27S217.66,124.83,217.8,124.82Z" fill="#68e1fd" class="target-color"/><path d="M194.12,104.9c0-.17.07-.23.19-.22s.32,0,.39.18a.17.17,0,0,1-.09.23.14.14,0,0,1-.11,0A1.16,1.16,0,0,1,194.12,104.9Z" fill="#68e1fd" class="target-color"/><path d="M195.33,105.48a.34.34,0,0,1-.23-.42s0,0,0,0a.22.22,0,0,1,.18,0A.35.35,0,0,1,195.33,105.48Z" fill="#68e1fd" class="target-color"/><path d="M167.72,119.11c-.25,0-.5.07-.72-.1C167.21,119.24,167.59,118.28,167.72,119.11Z" fill="#68e1fd" class="target-color"/><path d="M209,172.94c.15-.28.14-.6.47-.62.14,0,.2.15.19.29C209.64,173,209.33,172.91,209,172.94Z" fill="#68e1fd" class="target-color"/></svg>