<?xml version="1.0" encoding="utf-8"?>
<!-- Generator: Adobe Illustrator 27.5.0, SVG Export Plug-In . SVG Version: 6.00 Build 0)  -->
<svg version="1.1" id="Layer_1" xmlns="http://www.w3.org/2000/svg" xmlns:xlink="http://www.w3.org/1999/xlink" x="0px" y="0px"
	 viewBox="0 0 900 900" style="enable-background:new 0 0 900 900;" xml:space="preserve">
<g style="opacity:0.6;">
	<path style="fill:#897AA0;" d="M683.371,738.761c0,5.054-6.347,9.188-14.104,9.188H233.872c-7.757,0-14.104-4.135-14.104-9.188
		c0-5.054,6.347-9.188,14.104-9.188h435.396C677.024,729.573,683.371,733.707,683.371,738.761z"/>
</g>
<g>
	<g>
		<g>
			<g>
				<path style="fill:#FFCE00;" d="M623.836,552.949l1.318-2.691c-4.923-2.196-9.514-6.147-12.482-11.122
					c2.968,4.966,7.554,8.909,12.47,11.102l3.047-6.22c0.006,0.002,0.012,0.005,0.018,0.008l2.246-4.585
					c-9.422-4.56-16.277-16.238,3.216-29.298c87.789-65.301,146.548-138.067,145.591-191.379
					c4.873-86.389-114.713-105.005-99.235,12.18l16.471,0.074c-21.303-68.36,62.43-93.547,64.644-12.316
					c-8.604,77.233-76.136,118.379-145.994,183.461C591.191,525.568,608.129,551.017,623.836,552.949z M703.926,269.645
					c11.381-9.7,27.401-10.482,40.81-1.991c5.722,3.624,10.428,8.544,14.011,14.505c-3.581-5.952-8.283-10.866-13.999-14.485
					c-13.409-8.491-29.429-7.71-40.81,1.991C690.411,281.194,690.399,281.173,703.926,269.645z M621.161,512.544l57.601-49.053
					c28.548-24.052,50.876-47.791,66.35-70.547c16.911-24.87,26.245-49.443,27.74-73.041c0.869-16.327-2.392-30.762-9.207-41.984
					c6.823,11.225,10.088,25.668,9.219,42.004c-1.496,23.598-10.829,48.171-27.74,73.041
					c-15.474,22.756-37.802,46.496-66.351,70.547l-57.601,49.053c-5.961,7.124-7.46,14.382-4.334,21
					c0.298,0.632,0.63,1.241,0.989,1.828c-0.364-0.593-0.699-1.209-1.001-1.848C613.7,526.926,615.2,519.668,621.161,512.544z"/>
				<path style="fill:#DD970A;" d="M615.049,501.949c69.858-65.082,137.389-106.228,145.994-183.461
					c-2.214-81.231-85.854-55.858-64.551,12.501c0,0-6.197,0.01-6.198,0.002c-4.745-27.79,0.02-50.012,13.547-61.54
					c11.381-9.7,27.401-10.482,40.81-1.991c15.251,9.658,23.289,28.528,22.052,51.773c-2.718,42.876-33.542,89.443-91.61,138.366
					l-58.011,49.402l-0.171,0.202c-10.872,12.813-8.112,24.006-5.5,29.538c2.833,5.998,8.784,9.52,14.407,12.028l-1.976,4.191
					C608.135,551.028,591.094,525.354,615.049,501.949z"/>
			</g>
			<g>
				<path style="fill:#FFCE00;" d="M432.695,501.07c-70.272-64.479-138.064-105.043-147.161-182.2
					c1.695-81.248,85.587-56.781,64.721,11.759l16.47-0.216c14.729-117.315-104.735-97.671-99.31-11.326
					c-0.617,53.319,58.605,125.577,146.809,190.122c19.577,12.892,12.797,24.629,3.404,29.269l2.275,4.566
					c0.006-0.003,0.012-0.006,0.018-0.008l3.087,6.194c4.902-2.235,9.462-6.218,12.399-11.209c-2.936,5-7.502,8.991-12.411,11.229
					l1.335,2.679C440.024,549.863,456.799,524.269,432.695,501.07z M342.422,269.343c-11.443-9.602-27.467-10.246-40.821-1.64
					c-5.692,3.668-10.363,8.622-13.906,14.605c3.544-5.992,8.219-10.953,13.918-14.625c13.355-8.606,29.379-7.962,40.821,1.64
					C356.034,280.734,356.022,280.754,342.422,269.343z M431.216,532.465c-0.297,0.641-0.629,1.26-0.989,1.856
					c0.355-0.59,0.683-1.202,0.977-1.836c3.084-6.645,1.538-13.889-4.468-20.962l-57.912-48.556
					c-28.701-23.806-51.18-47.352-66.799-69.975c-17.069-24.724-26.56-49.216-28.206-72.8c-0.974-16.328,2.199-30.799,8.951-42.082
					c-6.743,11.281-9.912,25.743-8.939,42.062c1.646,23.584,11.137,48.077,28.206,72.801c15.619,22.622,38.098,46.169,66.799,69.975
					l57.912,48.556C432.754,518.576,434.3,525.82,431.216,532.465z"/>
				<path style="fill:#DD970A;" d="M432.791,500.855c-70.272-64.479-138.064-105.043-147.161-182.2
					c1.695-81.248,85.495-56.595,64.629,11.946c0,0,6.196-0.043,6.198-0.051c4.568-27.83-0.339-50.011-13.939-61.422
					c-11.443-9.602-27.467-10.246-40.821-1.64c-15.189,9.789-23.106,28.727-21.721,51.961
					c2.992,42.851,34.112,89.152,92.491,137.575l58.324,48.901l0.173,0.201c10.954,12.719,8.265,23.936,5.688,29.49
					c-2.795,6.022-8.723,9.595-14.33,12.151l2.003,4.174C440.018,549.873,456.895,524.054,432.791,500.855z"/>
			</g>
			<g>
				<path style="fill:#FFCE00;" d="M363.369,240.591c3.518,131.432,40.119,240.318,112.189,309.057
					c4.044,3.874,8.212,7.619,12.492,11.207c0.919,0.793,1.848,1.56,2.778,2.327c3.563,2.925,7.192,5.773,10.912,8.516
					c0.034,0.338,0.078,0.676,0.123,1.014h45.698c0.034-0.351,0.078-0.689,0.112-1.014c0.997-0.742,1.983-1.482,2.969-2.237
					c1.445-1.105,2.891-2.223,4.313-3.367c0.807-0.637,1.613-1.287,2.409-1.95c82.848-67.334,122.788-182.461,126.406-323.553
					c0.056-2.366-0.482-4.589-1.479-6.461c-1.781-3.367-4.985-5.63-8.649-5.63H373.508c-3.675,0-6.879,2.262-8.649,5.63
					C363.862,236.002,363.313,238.225,363.369,240.591z"/>
				<path style="fill:#FFCE00;" d="M632.344,721.152v2.58c-0.12,6.36-4.61,11.48-10.14,11.48l-203.6-0.19
					c-5.6-0.01-10.13-5.27-10.13-11.77v-1.91c0-1.73,0.32-3.38,0.91-4.86c1.56-3.97,4.97-6.75,8.97-6.89
					c37.91-1.42,64.12-14.5,80.17-37.69c0.12-0.17,0.25-0.34,0.36-0.51c0.78-1.13,1.53-2.29,2.25-3.47
					c0.11-0.17,0.22-0.34,0.33-0.52c0.68-0.16,1.5-2.98,2.34-7.58c0.1-0.56,0.2-1.13,0.3-1.74c0.18-1.08,0.36-2.24,0.54-3.46
					c1.83-12.43,3.61-31.88,4.12-48.86c0.16-4.91,0.19-9.62,0.11-13.89c-0.03-1.69-0.09-3.3-0.17-4.83c-0.03-0.6-0.06-1.17-0.1-1.74
					c-0.44-6.82,4.229-12.59,10.11-12.59h11.41c2.73,0,5.18,1.24,6.98,3.24c2.18,2.39,3.42,5.87,3.11,9.63
					c0,0.04-0.01,0.09-0.01,0.13c-0.13,1.46-0.23,2.99-0.32,4.58c-0.02,0.54-0.05,1.1-0.08,1.68c-0.86,19.41,0.74,46.94,2.76,62.65
					c0.16,1.23,0.31,2.39,0.48,3.46c0.09,0.61,0.18,1.19,0.27,1.74c0.82,4.9,1.66,7.61,2.4,6.93c0.3,0.43,0.6,0.86,0.92,1.29
					c0.45,0.62,0.89,1.24,1.35,1.84c0.54,0.72,1.08,1.42,1.64,2.11c18.15,22.97,42.88,34.91,73.26,37.43
					c3.89,0.32,7.16,3.14,8.62,7.06C632.044,717.912,632.344,719.492,632.344,721.152z"/>
			</g>
			<path style="fill:#DD970A;" d="M509.056,583.534c4.487-0.489,9.081-0.206,13.559,0.07c5.201,0.32,10.383,0.768,15.59,0.914
				c1.038,0.029,1.996,0.171,2.912,0.385c-0.314,0.26-0.621,0.538-0.94,0.784c-0.123,1.456-0.224,2.99-0.314,4.576
				c-2.577,1.989-5.299,3.511-8.133,4.551c-2.745,1.001-5.59,1.521-8.503,1.521c-5.075,0-9.915-1.586-14.374-4.485
				c-0.034-1.691-0.09-3.302-0.168-4.837c-0.198-0.132-0.391-0.277-0.587-0.415C508.505,585.665,508.836,584.651,509.056,583.534z"
				/>
			<path style="fill:#FFCE00;" d="M483.725,525.231c0,14.107,2.622,27.186,7.103,37.951c4.403,10.622,10.609,18.982,17.88,23.858
				c4.582,3.081,9.579,4.771,14.822,4.771c2.913,0,5.758-0.52,8.503-1.521c2.846-1.04,5.579-2.574,8.167-4.577
				c5.815-4.486,10.867-11.259,14.755-19.619c4.201-8.997,7.036-19.841,8.01-31.685c0.235-2.795,0.359-5.63,0.381-8.516v-0.663
				c0-36.781-17.824-66.593-39.816-66.593c-21.073,0-38.326,27.394-39.715,62.068C483.759,522.202,483.725,523.71,483.725,525.231z"
				/>
			<g>
				<path style="fill:#FFEFB1;" d="M517.355,563.182c-0.298-0.767-0.597-1.534-0.891-2.327c-1.373-3.588-2.71-7.332-4.008-11.207
					c-23.123-68.738-34.866-177.625-35.995-309.057c-0.018-2.366,0.158-4.589,0.478-6.461c0.568-3.367,1.596-5.63,2.775-5.63
					h-75.767c-3.034,0-5.68,2.262-7.142,5.63c-0.823,1.872-1.277,4.095-1.23,6.461c2.905,131.432,33.128,240.318,92.64,309.057
					c3.34,3.874,6.781,7.619,10.315,11.207c0.759,0.794,1.526,1.56,2.294,2.327c2.942,2.925,5.939,5.773,9.01,8.516
					c0.028,0.338,0.065,0.676,0.102,1.014h10.96c-0.014-0.338-0.029-0.676-0.04-1.014
					C519.663,568.955,518.498,566.107,517.355,563.182z"/>
			</g>
			<path style="fill:#DD970A;" d="M531.989,582.242c0.011,2.704,0.022,5.396,0.045,8.048c0.157,24.416,0.852,46.649,2.644,64.331
				c0.034,0.364,0.078,0.728,0.112,1.079c6.834,0.741,8.683,8.802,4.448,12.351c-0.359,0.299-0.773,0.572-1.232,0.806
				c12.077,38.432,49.731,53.137,94.342,54.879v-2.588c0-6.188-4.145-11.285-9.467-11.727c-31.291-2.6-56.599-15.185-74.894-39.537
				c-0.459-0.598-0.908-1.223-1.356-1.846c1.143-0.027,2.207-0.455,3.081-1.157c1.535-1.209,2.532-3.238,2.532-5.552
				c0-1.859-0.65-3.523-1.692-4.745c-1.053-1.209-2.487-1.964-4.089-1.964h-3.899c-2.016-15.706-3.619-43.242-2.756-62.654
				c0.101-2.197,0.224-4.29,0.392-6.254c5.815-4.486,10.867-11.259,14.755-19.619c84.484-67.061,125.162-183.047,128.815-325.504
				c0.056-2.366-0.482-4.589-1.479-6.461h7.663v-29.968h-39.155c-0.146,6.709-0.37,17.682-0.661,24.339
				c-0.067,1.872-0.157,3.758-0.246,5.63c-5.31,108.926-29.14,208.673-86.545,291.765c-6.218,9.023-12.839,17.838-19.874,26.445
				c-0.829,7.788-1.938,14.549-4.627,20.373c-0.516,1.119-1.087,2.185-1.736,3.238C535.753,578.186,534.073,580.292,531.989,582.242
				z"/>
		</g>
	</g>
	
		<line style="fill:none;stroke:#DD970A;stroke-width:21.4507;stroke-linecap:round;stroke-miterlimit:10;" x1="493.627" y1="667.922" x2="555.212" y2="667.922"/>
	
		<line style="fill:none;stroke:#DD970A;stroke-width:21.4507;stroke-linecap:round;stroke-miterlimit:10;" x1="529.766" y1="657.166" x2="555.212" y2="657.166"/>
	
		<line style="fill:none;stroke:#FFCE00;stroke-width:21.4507;stroke-linecap:round;stroke-miterlimit:10;" x1="509.324" y1="657.166" x2="529.766" y2="657.166"/>
	<g>
		<path style="fill:#DD970A;" d="M501.658,667.891h-8.031c-5.923,0-10.725-4.802-10.725-10.725c0-5.924,4.802-10.725,10.725-10.725
			h14.531c5.923,0,4.225,4.802,4.225,10.725C512.383,663.089,507.581,667.891,501.658,667.891z"/>
	</g>
	
		<line style="fill:none;stroke:#DD970A;stroke-width:21.4507;stroke-linecap:round;stroke-miterlimit:10;" x1="509.715" y1="601.394" x2="537.273" y2="601.394"/>
	
		<line style="fill:none;stroke:#DD970A;stroke-width:21.4507;stroke-linecap:round;stroke-miterlimit:10;" x1="519.992" y1="592.277" x2="537.273" y2="592.277"/>
	
		<line style="fill:none;stroke:#DD970A;stroke-width:21.4507;stroke-linecap:round;stroke-miterlimit:10;" x1="509.715" y1="592.277" x2="513.657" y2="592.277"/>
	
		<line style="fill:none;stroke:#DD970A;stroke-width:21.4507;stroke-linecap:round;stroke-miterlimit:10;" x1="480.429" y1="554.381" x2="567.662" y2="554.381"/>
	
		<line style="fill:none;stroke:#DD970A;stroke-width:21.4507;stroke-linecap:round;stroke-miterlimit:10;" x1="537.81" y1="542.583" x2="567.662" y2="542.583"/>
	
		<line style="fill:none;stroke:#FFCE00;stroke-width:21.4507;stroke-linecap:round;stroke-miterlimit:10;" x1="480.429" y1="542.583" x2="537.81" y2="542.583"/>
	<polygon style="fill:#DD970A;" points="363.1,239.851 683.886,250.577 683.886,231.984 363.1,231.984 	"/>
	<rect x="358.473" y="202.933" style="fill:#FFCE00;" width="331.907" height="29.955"/>
	<path style="fill:#FFEFB1;" d="M378.504,202.933c0.011,8.724,0.123,21.569,0.314,29.955h39.245
		c0.101-8.373,0.19-21.218,0.246-29.955H378.504z"/>
	<path style="fill:#DD970A;" d="M479.661,735.08c13.534-16.318,25.749-33.648,34.279-53.179c1.633-3.739,1.07-8.009-2.69-10.261
		c-0.255-0.153-0.53-0.281-0.813-0.398c0.277-0.523,0.56-1.042,0.83-1.569c0.263-0.513,0.46-1.021,0.605-1.523h6.24
		c-3.249-5.618-3.041-14.828-0.288-20.833c1.395-0.503,4.833-0.333,4.833-0.333s-1.651-26.356-1.319-37.142
		c0.087-0.014,0.167-0.024,0.258-0.041c0.358-0.151,0.717-0.302,1.075-0.454c0.121-0.065,0.217-0.155,0.327-0.231
		c0.938,0.976-0.103-1.807,0.992-0.966c4.591,3.525,11.128-0.584,6.592-4.067c-7.024-5.393-7.626-15.113-2.916-22.214
		c0.084-0.127,0.156-0.253,0.225-0.378h1.134c-4.824-2.01-6.197-14.179-6.298-16.749c-0.087-2.16,2.858-10.984,0.702-11.132
		c-10.981-0.751-9.481-20.501-3.481-22.251c0.82-1.8,0.255-10.625-0.075-12.755c-8.92-56.67-43.99-108.01-93.05-137.58
		c-9.39-5.67-17.95,9.03-8.58,14.67c21.44,12.93,39.74,30.27,53.96,50.47c-2.92-0.7-6.39,0.25-8.38,2.24
		c-3.59,3.59-2.82,8.38,0,12.02c15.05,19.44,20.92,44.28,26.36,67.83c-1.72,1.13-3,2.9-3.8,4.94c-1.65,4.25-1.64,8.79-0.35,13.13
		c0.36,1.2,0.91,2.19,1.57,3.01c-1.3,1.99-1.72,4.56-1.27,7.1c0.07,0.4,0.16,0.79,0.24,1.19c-0.428,0.272-0.825,0.597-1.199,0.951
		c0.887,0.766,1.777,1.529,2.674,2.281c0.918,0.793,1.849,1.56,2.778,2.327c4.398,10.611,10.597,18.964,17.857,23.842
		c0.078,1.531,0.134,3.139,0.168,4.826c0.007,0.005,0.015,0.009,0.023,0.014c0,0.005,0,0.009,0,0.013
		c0.079,4.264,0.045,8.971-0.112,13.885c-0.453,14.932-1.354,28.256-2.94,40.554c-0.078,0.605-0.679,4.717-0.758,5.299
		c-0.141,1.041-0.283,2.045-0.425,3.006c-0.179,1.222-0.358,2.379-0.538,3.458c-0.101,0.611-0.202,1.184-0.302,1.742
		c-0.84,4.603-1.658,7.424-2.342,7.58c-0.1,0.182-0.213,0.351-0.325,0.52c-0.717,1.183-1.468,2.341-2.252,3.471
		c-0.112,0.169-0.235,0.338-0.358,0.507c-13.401,19.361-33.881,31.667-62.332,36.033c-8.55,2.875-17.286,5.258-26.105,7.063
		c-1.02,1.831-1.615,4.007-1.615,6.349v1.911c0,2.59,0.727,4.973,1.945,6.914c1.799-0.335,3.597-0.685,5.391-1.066
		c-1.738,0.47-3.491,0.889-5.25,1.284c1.849,2.808,4.757,4.626,8.043,4.634l23.642,0.023c2.201-1.01,4.38-2.067,6.528-3.181
		c-1.128,1.081-2.283,2.133-3.439,3.184L479.661,735.08z"/>
	<path style="fill:#C16D08;" d="M632.344,721.152v2.58c-0.12,6.36-4.61,11.48-10.14,11.48l-203.6-0.19
		c-5.6-0.01-10.13-5.27-10.13-11.77v-1.91c0-1.73,0.32-3.38,0.91-4.86h222.12C632.044,717.912,632.344,719.492,632.344,721.152z"/>
</g>
<path style="fill:#FFFFFF;" d="M388.248,271.978c-0.273,14.387,5.533,23.044,21.153,22.453c-12.832,0.879-19.97,10.244-19.97,24.137
	c-2.19-16.837-10.756-21.93-22.019-23.295C382.544,294.253,388.209,285.332,388.248,271.978z"/>
<g>
	<g>
		<path d="M321.23,546.123c-1.901-0.336,32.696,13.281,32.696,13.281s-34.361,7.792-33.542,7.805L321.23,546.123z"/>
	</g>
	<g>
		<path style="fill:#231B22;" d="M385.245,358.659h-27.1l-34.35,384.581h29.929c68.429,0,130.96-86.093,139.664-192.291
			C502.092,444.751,453.674,358.659,385.245,358.659z"/>
		<g>
			
				<ellipse transform="matrix(0.1377 -0.9905 0.9905 0.1377 -250.2261 814.4727)" style="fill:#271D22;" cx="342.664" cy="550.949" rx="193.383" ry="123.204"/>
			<g>
				<g style="enable-background:new    ;">
					<g>
						<path style="fill:#4C3C4A;" d="M465.234,490.197c-3.034-22.983-8.952-44.029-17.241-62.237
							c-7.552-16.625-17.079-30.876-28.184-42.056c-17.176-17.295-38.126-27.246-61.388-27.246
							c-68.427,0-130.958,86.094-139.661,192.286c-2.481,30.318-0.316,58.997,5.643,84.493c4.557,19.501,11.326,37.141,19.945,52.24
							c19.559,34.348,48.586,55.563,82.552,55.563c68.427,0,130.958-86.095,139.671-192.295
							C468.31,529.712,467.773,509.289,465.234,490.197z M456.593,550.945c-0.229,2.802-1.885,5.082-3.691,5.082h-1.378
							c-9.012,89.194-61.186,161.326-118.821,164.491l-0.183,2.169c-0.228,2.802-1.885,5.082-3.691,5.082
							c-1.806,0-3.091-2.28-2.862-5.082l0.171-2.104c-28.901-1.061-53.597-19.725-70.367-49.344
							c-7.659-13.507-13.661-29.303-17.662-46.757c-4.704-20.525-6.635-43.341-5.216-67.422h-0.726
							c-1.815,0-3.091-2.271-2.862-5.083c0.228-2.802,1.885-5.082,3.691-5.082h0.698c8.736-90.004,61.463-162.88,119.586-165.543
							l0.097-1.117c0.228-2.793,1.875-5.073,3.691-5.073c1.806,0,3.082,2.28,2.853,5.073l-0.088,1.117
							c19.067,0.875,36.287,9.429,50.579,23.727c9.884,9.885,18.368,22.526,25.098,37.29c7.3,15.992,12.528,34.479,15.241,54.641
							c2.075,15.424,2.68,31.835,1.61,48.86h1.368C455.536,545.871,456.821,548.143,456.593,550.945z"/>
						<path style="fill:#271D22;" d="M350.368,416.949l0.052-0.633c0.23-2.809,1.88-5.08,3.69-5.08c1.805,0,3.087,2.271,2.857,5.08
							l-0.052,0.633c44.837,2.611,76.553,59.005,72.509,128.92h0.739c1.805,0,3.087,2.271,2.857,5.08
							c-0.23,2.801-1.885,5.08-3.69,5.08h-0.739c-7.38,69.566-47.976,125.747-92.972,128.878l-0.098,1.197
							c-0.23,2.801-1.885,5.08-3.69,5.08c-1.81,0-3.092-2.28-2.862-5.08l0.092-1.12c-44.957-2.094-76.906-58.155-73.215-127.926
							h-0.44c-1.805,0-3.087-2.271-2.857-5.08c0.23-2.801,1.885-5.08,3.69-5.08h0.391
							C263.751,476.508,304.884,419.58,350.368,416.949L350.368,416.949z M358.811,393.546c-0.399,2.525-1.944,4.479-3.618,4.479
							c-1.679,0-2.899-1.954-2.884-4.479c-53.81,2.635-102.577,70.085-110.758,153.383c1.61,0.289,2.699,2.442,2.486,5.047
							c-0.212,2.59-1.632,4.724-3.271,5.04c-4.751,82.696,33.1,149.255,86.378,151.364c0.253-2.766,1.895-5.005,3.688-5.005
							c1.774,0,3.043,2.203,2.867,4.939c53.311-3.156,101.518-69.822,109.971-152.286c-1.772-0.052-3.022-2.311-2.795-5.079
							c0.228-2.776,1.847-5.027,3.628-5.079C449.59,463.055,411.968,396.162,358.811,393.546L358.811,393.546z"/>
						<path style="fill:#FFFFFF;" d="M240.766,557.016c-0.138,0.027-0.278,0.041-0.419,0.041h-7.449
							c-5.279,89.399,35.645,161.406,93.245,163.526l0.994-12.127c0.002-0.025,0.005-0.05,0.007-0.076
							C273.866,706.271,236.015,639.712,240.766,557.016L240.766,557.016z M443.671,556.028
							c-8.453,82.465-56.66,149.13-109.971,152.286c-0.003,0.047-0.006,0.094-0.01,0.141l-0.989,12.066
							c57.641-3.166,109.817-75.301,118.829-164.492h-7.796C443.712,556.029,443.691,556.029,443.671,556.028L443.671,556.028z
							 M353.286,381.351c-58.131,2.66-110.852,75.543-119.594,165.544h7.488c0.127,0,0.25,0.012,0.371,0.033
							c8.181-83.298,56.949-150.747,110.758-153.383c0.001-0.197,0.01-0.398,0.026-0.602L353.286,381.351L353.286,381.351z
							 M359.833,381.351l-0.95,11.594c-0.017,0.203-0.041,0.404-0.072,0.601c53.157,2.616,90.779,69.509,85.693,152.324
							c0.021-0.001,0.042-0.001,0.063-0.001h7.796C457.993,456.34,417.307,383.992,359.833,381.351L359.833,381.351z"/>
						<path style="fill:#271D22;" d="M347.449,452.57l0.098-1.197c0.23-2.809,1.88-5.08,3.69-5.08c1.805,0,3.087,2.271,2.857,5.08
							l-0.098,1.196c32.193,2.563,54.943,43.013,52.476,93.299h0.776h1.308c1.805,0,3.087,2.271,2.857,5.08
							c-0.23,2.801-1.885,5.08-3.69,5.08h-1.308h-0.776c-5.736,49.94-34.756,90.185-67.099,93.249l-0.103,1.255
							c-0.23,2.809-1.885,5.08-3.69,5.08c-1.81,0-3.093-2.271-2.862-5.08l0.094-1.151c-32.315-2.053-55.298-42.181-53.175-92.326
							h-0.809c-1.805,0-3.087-2.271-2.857-5.08c0.23-2.801,1.885-5.08,3.69-5.08h0.741
							C285.059,496.138,314.617,455.16,347.449,452.57L347.449,452.57z M355.915,429.158l-0.03,0.369
							c-0.23,2.801-1.885,5.08-3.69,5.08c-1.81,0-3.087-2.279-2.857-5.08l0.03-0.368c-41.147,2.618-78.312,54.082-84.878,117.738
							h0.262c1.81,0,3.087,2.279,2.857,5.08c-0.23,2.809-1.88,5.08-3.69,5.08h-0.208c-3.155,63.062,25.735,113.668,66.374,115.731
							c0.401-2.514,1.945-4.469,3.621-4.469c1.653,0,2.867,1.912,2.883,4.385c40.685-3.086,77.337-53.834,84.145-116.715
							c-1.585-0.316-2.659-2.456-2.447-5.04c0.212-2.591,1.637-4.725,3.274-5.04C425.074,482.705,396.426,431.756,355.915,429.158
							L355.915,429.158z"/>
						<path style="fill:#FFCE00;" d="M263.711,557.057h-7.865c-3.691,69.771,28.258,125.833,73.215,127.926l0.949-11.584
							c0.017-0.207,0.042-0.411,0.074-0.611C289.446,670.724,260.557,620.118,263.711,557.057L263.711,557.057z M420.734,555.989
							c-6.808,62.88-43.46,113.629-84.145,116.715c0.001,0.227-0.007,0.459-0.026,0.695l-0.943,11.508
							c44.996-3.131,85.592-59.312,92.972-128.878h-7.448C421.004,556.029,420.867,556.016,420.734,555.989L420.734,555.989z
							 M350.368,416.949c-45.485,2.63-86.618,59.559-93.738,129.947h7.859c6.566-63.656,43.731-115.119,84.878-117.738
							L350.368,416.949L350.368,416.949z M356.916,416.949l-1.001,12.209c40.511,2.599,69.159,53.548,65.646,116.751
							c0.138-0.026,0.277-0.04,0.416-0.04h7.448C433.468,475.954,401.753,419.559,356.916,416.949L356.916,416.949z"/>
						<path style="fill:#271D22;" d="M344.53,488.222c0.301-2.691,1.908-4.843,3.667-4.843c1.753,0,3.013,2.151,2.873,4.841
							c19.555,2.454,33.355,26.99,32.429,57.648h0.178c1.805,0,3.087,2.271,2.857,5.08c-0.23,2.801-1.885,5.08-3.69,5.08h-0.177
							c-4.052,30.318-21.519,54.636-41.201,57.556l-0.03,0.366c-0.23,2.809-1.885,5.08-3.69,5.08c-1.81,0-3.093-2.271-2.862-5.08
							l0.017-0.202c-19.679-1.97-33.697-26.176-33.096-56.695c-1.757-0.074-2.994-2.316-2.767-5.078
							c0.221-2.699,1.766-4.913,3.493-5.071C306.358,515.769,324.349,490.712,344.53,488.222L344.53,488.222z M352.993,464.779
							c-0.289,2.718-1.909,4.885-3.671,4.885c-1.768,0-3.027-2.166-2.871-4.884c-28.496,2.565-54.088,38.086-59.013,82.119
							c1.759,0.08,2.986,2.327,2.76,5.078c-0.223,2.719-1.775,4.934-3.516,5.073c-1.598,43.471,18.355,78.16,46.384,80.129
							c0.524-2.247,1.961-3.917,3.513-3.917c1.521,0,2.671,1.614,2.857,3.802c28.08-2.953,53.219-37.838,58.352-81.18
							c-1.386-0.543-2.287-2.55-2.091-4.935c0.196-2.392,1.425-4.394,2.9-4.935C400.582,502.386,380.885,467.318,352.993,464.779
							L352.993,464.779z"/>
						<path style="fill:#FFFFFF;" d="M286.682,557.049c-0.058,0.005-0.116,0.007-0.174,0.007h-7.703
							c-2.123,50.145,20.86,90.273,53.175,92.326l0.905-11.041c0.033-0.4,0.095-0.79,0.182-1.164
							C305.037,635.21,285.084,600.52,286.682,557.049L286.682,557.049z M397.789,555.884c-5.134,43.342-30.272,78.226-58.352,81.18
							c0.035,0.408,0.036,0.837,0,1.278l-0.896,10.936c32.343-3.063,61.363-43.309,67.099-93.249h-7.084
							C398.287,556.029,398.031,555.979,397.789,555.884L397.789,555.884z M347.449,452.57c-32.832,2.59-62.39,43.568-67.879,94.326
							h7.771c0.033,0,0.065,0.001,0.097,0.002c4.925-44.033,30.518-79.554,59.013-82.119c0.004-0.065,0.008-0.131,0.013-0.196
							L347.449,452.57L347.449,452.57z M353.996,452.569l-0.985,12.014c-0.005,0.065-0.012,0.131-0.019,0.196
							c27.892,2.539,47.589,37.607,45.606,81.235c0.257-0.094,0.522-0.145,0.789-0.145h7.084
							C408.939,495.582,386.189,455.132,353.996,452.569L353.996,452.569z"/>
						<path style="fill:#271D22;" d="M341.562,524.396l0.197-2.405c0.23-2.801,1.88-5.08,3.69-5.08c1.805,0,3.087,2.279,2.857,5.08
							l-0.197,2.402c7.041,2.127,11.941,11.161,12.11,22.503h0.784c1.805,0,3.087,2.279,2.857,5.08
							c-0.23,2.809-1.885,5.08-3.69,5.08h-1.036c-2.393,10.367-8.441,18.451-15.379,20.448l-0.114,1.39
							c-0.23,2.809-1.886,5.088-3.691,5.088c-1.81,0-3.087-2.279-2.856-5.088l0.114-1.393c-6.605-2.001-11.324-10.083-12.017-20.445
							h-1.688c-1.81,0-3.093-2.271-2.862-5.08c0.23-2.801,1.885-5.08,3.695-5.08h1.436
							C327.801,535.56,334.176,526.528,341.562,524.396L341.562,524.396z M350.07,500.47l-0.016,0.19
							c-0.23,2.801-1.885,5.08-3.69,5.08c-1.81,0-3.087-2.279-2.857-5.08l0.015-0.188c-15.836,2.428-29.868,22.025-33.117,46.425
							h0.181c1.805,0,3.087,2.279,2.857,5.08c-0.23,2.809-1.885,5.08-3.69,5.08h-0.049c-0.103,23.785,10.849,42.557,26.197,44.47
							l0.022-0.272c0.23-2.809,1.885-5.08,3.695-5.08c1.805,0,3.087,2.271,2.857,5.08l-0.006,0.068
							c15.34-2.825,28.853-21.706,32.303-45.293h-0.116c-1.81,0-3.087-2.279-2.857-5.08c0.23-2.809,1.88-5.08,3.69-5.08h0.117
							C376.028,521.941,365.297,502.855,350.07,500.47L350.07,500.47z"/>
						<path style="fill:#FFCE00;" d="M301.803,557.055c-0.601,30.519,13.417,54.725,33.096,56.695l1.002-12.223
							c-15.348-1.913-26.3-20.685-26.197-44.47h-7.812C301.863,557.057,301.833,557.056,301.803,557.055L301.803,557.055z
							 M382.666,556.029h-7.892c-3.451,23.587-16.963,42.468-32.303,45.293l-1.005,12.263
							C361.148,610.665,378.614,586.347,382.666,556.029L382.666,556.029z M344.53,488.222
							c-20.182,2.49-38.172,27.547-42.002,58.683c0.065-0.006,0.131-0.009,0.197-0.009h7.68
							c3.249-24.399,17.281-43.996,33.117-46.425l0.984-12.011C344.514,488.38,344.522,488.301,344.53,488.222L344.53,488.222z
							 M351.07,488.221c-0.004,0.08-0.009,0.159-0.016,0.239l-0.984,12.01c15.227,2.386,25.958,21.472,25.537,45.399h7.892
							C384.425,515.211,370.625,490.675,351.07,488.221L351.07,488.221z"/>
						<path style="fill:#FF4800;" d="M350.299,557.023c-1.25,3.18-3.197,5.692-5.438,6.978c-0.003,0.055-0.007,0.111-0.012,0.167
							l-1.093,13.337c6.938-1.996,12.986-10.081,15.379-20.448h-8.459C350.547,557.057,350.422,557.045,350.299,557.023
							L350.299,557.023z M333.99,556.827c-0.321,0.149-0.655,0.229-0.996,0.229h-7.802c0.693,10.362,5.411,18.443,12.017,20.445
							l1.093-13.334c0.005-0.058,0.01-0.115,0.016-0.173C336.251,562.68,334.698,560.095,333.99,556.827L333.99,556.827z
							 M341.562,524.396c-7.385,2.132-13.76,11.164-15.788,22.499h8.054c0.176,0,0.346,0.022,0.511,0.063
							c1.147-4.196,3.459-7.569,6.201-9.109c-0.023-0.361-0.02-0.737,0.012-1.123L341.562,524.396L341.562,524.396z
							 M348.109,524.393l-1.011,12.334c-0.031,0.384-0.09,0.757-0.171,1.116c2.483,1.529,4.24,4.879,4.71,9.053h8.582
							C360.05,535.555,355.15,526.52,348.109,524.393L348.109,524.393z"/>
						<path style="fill:#FFFFFF;" d="M346.927,537.843c-0.514,2.271-1.961,3.964-3.519,3.964c-1.561,0-2.726-1.69-2.869-3.958
							c-2.741,1.54-5.054,4.913-6.201,9.109c1.533,0.385,2.553,2.488,2.346,5.017c-0.187,2.281-1.31,4.207-2.694,4.851
							c0.708,3.267,2.261,5.853,4.328,7.168c0.282-2.729,1.901-4.908,3.674-4.908c1.769,0,3.036,2.182,2.869,4.914
							c2.241-1.287,4.189-3.798,5.438-6.978c-1.607-0.291-2.694-2.437-2.48-5.046c0.23-2.801,1.88-5.08,3.69-5.08h0.128
							C351.168,542.723,349.411,539.372,346.927,537.843L346.927,537.843z"/>
						<path style="fill:#FF0000;" d="M408.557,545.869h-1.308c1.805,0,3.087,2.271,2.857,5.08c-0.23,2.801-1.885,5.08-3.69,5.08
							h1.308c1.805,0,3.46-2.279,3.69-5.08C411.644,548.14,410.362,545.869,408.557,545.869L408.557,545.869z"/>
						<path style="fill:#FF3000;" d="M453.735,545.869h-1.373h-7.796c-0.021,0-0.042,0.001-0.063,0.001
							c-1.78,0.052-3.4,2.303-3.628,5.079c-0.227,2.769,1.023,5.027,2.795,5.079c0.021,0,0.041,0.001,0.062,0.001h7.796h1.373
							c1.805,0,3.46-2.279,3.69-5.08C456.822,548.14,455.54,545.869,453.735,545.869L453.735,545.869z"/>
						<path style="fill:#FF3000;" d="M430.163,545.869h-0.739h-7.448c-0.14,0-0.279,0.014-0.416,0.04
							c-1.636,0.315-3.061,2.449-3.274,5.04c-0.212,2.584,0.863,4.724,2.447,5.04c0.133,0.027,0.27,0.04,0.41,0.04h7.448h0.739
							c1.805,0,3.46-2.279,3.69-5.08C433.251,548.14,431.968,545.869,430.163,545.869L430.163,545.869z"/>
						<path style="fill:#FF3000;" d="M407.248,545.869h-0.776h-7.084c-0.268,0-0.532,0.051-0.789,0.145
							c-1.475,0.542-2.704,2.543-2.9,4.935c-0.196,2.385,0.705,4.392,2.091,4.935c0.242,0.095,0.498,0.145,0.766,0.145h7.084h0.776
							c1.805,0,3.46-2.279,3.69-5.08C410.336,548.14,409.053,545.869,407.248,545.869L407.248,545.869z"/>
						<path style="fill:#FF3000;" d="M383.677,545.869h-0.178h-7.892h-0.117c-1.81,0-3.46,2.271-3.69,5.08
							c-0.23,2.801,1.047,5.08,2.857,5.08h0.116h7.892h0.177c1.805,0,3.46-2.279,3.69-5.08
							C386.764,548.14,385.482,545.869,383.677,545.869L383.677,545.869z"/>
						<path style="fill:#FF3000;" d="M241.18,546.896h-7.488h-0.693c-1.81,0-3.465,2.279-3.695,5.08
							c-0.23,2.809,1.052,5.08,2.862,5.08h0.732h7.449c0.141,0,0.281-0.014,0.419-0.041c1.639-0.316,3.059-2.449,3.271-5.04
							c0.214-2.605-0.876-4.759-2.486-5.047C241.43,546.907,241.307,546.896,241.18,546.896L241.18,546.896z"/>
						<path style="fill:#FF3000;" d="M264.752,546.896h-0.262h-7.859h-0.391c-1.805,0-3.46,2.279-3.69,5.08
							c-0.23,2.809,1.052,5.08,2.857,5.08h0.44h7.865h0.208c1.81,0,3.46-2.271,3.69-5.08
							C267.838,549.175,266.562,546.896,264.752,546.896L264.752,546.896z"/>
						<path style="fill:#FF3000;" d="M287.341,546.896h-7.771h-0.741c-1.805,0-3.46,2.279-3.69,5.08
							c-0.23,2.809,1.052,5.08,2.857,5.08h0.809h7.703c0.058,0,0.116-0.003,0.174-0.007c1.741-0.14,3.293-2.355,3.516-5.073
							c0.225-2.751-1.002-4.998-2.76-5.078C287.405,546.897,287.373,546.896,287.341,546.896L287.341,546.896z"/>
						<path style="fill:#FF3000;" d="M310.587,546.896h-0.181h-7.68c-0.066,0-0.132,0.004-0.197,0.009
							c-1.727,0.158-3.272,2.372-3.493,5.071c-0.226,2.762,1.01,5.004,2.767,5.078c0.03,0.001,0.06,0.002,0.09,0.002h7.812h0.049
							c1.805,0,3.46-2.271,3.69-5.08C313.673,549.175,312.391,546.896,310.587,546.896L310.587,546.896z"/>
						<path style="fill:#FF4800;" d="M333.827,546.896h-8.054h-1.436c-1.81,0-3.466,2.279-3.695,5.08
							c-0.23,2.809,1.052,5.08,2.862,5.08h1.688h7.802c0.34,0,0.675-0.08,0.996-0.229c1.384-0.644,2.507-2.57,2.694-4.851
							c0.207-2.529-0.813-4.633-2.346-5.017C334.174,546.918,334.003,546.896,333.827,546.896L333.827,546.896z"/>
						<path style="fill:#FF4800;" d="M361.003,546.896h-0.784h-8.582h-0.128c-1.81,0-3.46,2.279-3.69,5.08
							c-0.214,2.61,0.874,4.755,2.48,5.046c0.123,0.022,0.248,0.034,0.377,0.034h8.459h1.036c1.805,0,3.46-2.271,3.69-5.08
							C364.09,549.175,362.808,546.896,361.003,546.896L361.003,546.896z"/>
						<path style="fill:#FF3000;" d="M330.833,703.375c-1.794,0-3.435,2.239-3.688,5.005c-0.002,0.025-0.005,0.05-0.007,0.076
							l-0.994,12.127l-0.172,2.103c-0.23,2.801,1.052,5.08,2.862,5.08c1.805,0,3.46-2.279,3.69-5.08l0.177-2.164l0.989-12.066
							c0.004-0.047,0.007-0.094,0.01-0.141C333.876,705.579,332.607,703.375,330.833,703.375L330.833,703.375z"/>
						<path style="fill:#FF3000;" d="M333.706,668.318c-1.676,0-3.22,1.955-3.621,4.469c-0.032,0.201-0.057,0.404-0.074,0.611
							l-0.949,11.584l-0.092,1.12c-0.229,2.801,1.052,5.08,2.862,5.08c1.805,0,3.46-2.28,3.69-5.08l0.098-1.197l0.943-11.508
							c0.019-0.236,0.028-0.468,0.026-0.695C336.573,670.23,335.359,668.318,333.706,668.318L333.706,668.318z"/>
						<path style="fill:#FF3000;" d="M336.579,633.262c-1.552,0-2.99,1.67-3.513,3.917c-0.087,0.374-0.149,0.763-0.182,1.164
							l-0.905,11.041l-0.094,1.151c-0.23,2.809,1.052,5.08,2.862,5.08c1.805,0,3.46-2.271,3.69-5.08l0.103-1.255l0.896-10.936
							c0.036-0.442,0.035-0.87,0-1.278C339.251,634.875,338.1,633.262,336.579,633.262L336.579,633.262z"/>
						<path style="fill:#FF3000;" d="M339.619,596.174c-1.81,0-3.465,2.271-3.695,5.08l-0.022,0.272L334.9,613.75l-0.017,0.202
							c-0.23,2.809,1.052,5.08,2.862,5.08c1.805,0,3.46-2.271,3.69-5.08l0.03-0.366l1.005-12.263l0.006-0.068
							C342.707,598.446,341.424,596.174,339.619,596.174L339.619,596.174z"/>
						<path style="fill:#FF3000;" d="M357.067,375.16c-1.81,0-3.46,2.279-3.69,5.08l-0.091,1.112l-0.95,11.593
							c-0.017,0.204-0.025,0.404-0.026,0.602c-0.016,2.525,1.205,4.479,2.884,4.479c1.674,0,3.219-1.954,3.618-4.479
							c0.031-0.197,0.056-0.398,0.072-0.601l0.95-11.594l0.091-1.111C360.154,377.439,358.872,375.16,357.067,375.16L357.067,375.16
							z"/>
						<path style="fill:#FF3000;" d="M354.11,411.236c-1.81,0-3.46,2.271-3.69,5.08l-0.052,0.633l-1.001,12.209l-0.03,0.368
							c-0.23,2.801,1.047,5.08,2.857,5.08c1.805,0,3.46-2.279,3.69-5.08l0.03-0.369l1.001-12.209l0.052-0.633
							C357.198,413.507,355.915,411.236,354.11,411.236L354.11,411.236z"/>
						<path style="fill:#FF3000;" d="M351.237,446.292c-1.81,0-3.46,2.271-3.69,5.08l-0.098,1.197l-0.985,12.013
							c-0.005,0.066-0.01,0.131-0.013,0.196c-0.156,2.718,1.103,4.884,2.871,4.884c1.763,0,3.382-2.167,3.671-4.885
							c0.007-0.065,0.013-0.13,0.019-0.196l0.985-12.014l0.098-1.196C354.324,448.564,353.042,446.292,351.237,446.292
							L351.237,446.292z"/>
						<path style="fill:#FF3000;" d="M348.197,483.38c-1.759,0-3.366,2.151-3.667,4.843c-0.009,0.079-0.017,0.158-0.023,0.238
							l-0.984,12.011l-0.015,0.188c-0.23,2.801,1.047,5.08,2.857,5.08c1.805,0,3.46-2.279,3.69-5.08l0.016-0.19l0.984-12.01
							c0.007-0.08,0.012-0.16,0.016-0.239C351.21,485.531,349.95,483.38,348.197,483.38L348.197,483.38z"/>
						<path style="fill:#FF4800;" d="M345.449,516.911c-1.81,0-3.46,2.279-3.69,5.08l-0.197,2.405l-1.011,12.331
							c-0.032,0.386-0.035,0.762-0.012,1.123c0.143,2.267,1.308,3.958,2.869,3.958c1.559,0,3.005-1.694,3.519-3.964
							c0.081-0.359,0.139-0.732,0.171-1.116l1.011-12.334l0.197-2.402C348.535,519.191,347.254,516.911,345.449,516.911
							L345.449,516.911z"/>
						<path style="fill:#FF4800;" d="M341.992,559.087c-1.773,0-3.391,2.179-3.674,4.908c-0.006,0.057-0.012,0.115-0.016,0.173
							l-1.093,13.334l-0.114,1.393c-0.23,2.809,1.046,5.088,2.856,5.088c1.805,0,3.46-2.279,3.691-5.088l0.114-1.39l1.093-13.337
							c0.005-0.056,0.008-0.111,0.012-0.167C345.028,561.269,343.761,559.087,341.992,559.087L341.992,559.087z"/>
					</g>
				</g>
			</g>
		</g>
	</g>
	<path style="opacity:0.5;fill:#51244E;" d="M341.357,552.356l-85.585,118.883l-11.423,16.439
		c-8.619-15.099-15.388-32.738-19.945-52.24l13.706-10.956l96.746-73.272L341.357,552.356z"/>
	<path style="opacity:0.5;fill:#51244E;" d="M343.957,550.707c0,1.323-1.072,2.395-2.395,2.395s-2.395-1.072-2.395-2.395
		c0-1.323,1.072-2.395,2.395-2.395S343.957,549.384,343.957,550.707z"/>
	<path style="opacity:0.5;fill:#FFFFFF;" d="M465.234,490.197l-14.482,6.814l-105.668,49.745l-1.674-4.952l67.004-136.723
		l9.397-19.176c11.104,11.18,20.632,25.431,28.184,42.056C456.282,446.168,462.2,467.214,465.234,490.197z"/>
	<g>
		<path style="fill:#FF9D00;" d="M118.803,516.986c3.885,0.646,6.053-1.886,4.817-5.626l-2.801-8.477
			c-1.236-3.74-5.426-7.327-9.311-7.973l-36.24-6.021c-3.885-0.645-6.053,1.886-4.817,5.626l2.801,8.476
			c1.236,3.74,5.426,7.328,9.311,7.973L118.803,516.986z"/>
		<path style="fill:#FFCE00;" d="M118.823,517.031c3.882,0.666,5.127,3.791,2.766,6.944l-5.374,7.177
			c-2.36,3.153-6.758,5.319-9.772,4.814c-3.014-0.505-7.04-1.178-8.947-1.496c-1.907-0.317-6.634-1.167-10.507-1.888l-20.748-3.863
			c-3.872-0.721-4.86-3.684-2.195-6.584l6.668-7.256c2.665-2.9,8.021-4.728,11.903-4.062L118.823,517.031z"/>
		<g>
			<g>
				<path style="fill:#562726;" d="M331.467,551.726L75.49,513.11c-1.416-0.22-2.385-1.545-2.165-2.961l0,0
					c0.22-1.415,1.545-2.385,2.961-2.165l255.978,38.617c1.416,0.22,2.385,1.545,2.165,2.961l0,0
					C334.208,550.977,332.883,551.946,331.467,551.726z"/>
				<path style="fill:#68322F;" d="M73.324,510.149L73.324,510.149c0.22-1.415,1.545-2.385,2.961-2.165l255.978,38.617
					c1.416,0.22,2.385,1.545,2.165,2.961l0,0L73.324,510.149z"/>
			</g>
		</g>
		<path style="fill:#FFFFFF;" d="M114.674,523.341l-13.711,11.707l-6.933-1.154C102.708,529.399,114.674,523.341,114.674,523.341z"
			/>
		<path style="fill:#5A4D66;" d="M341.357,552.356c-7.737,0.626-18.91,0.228-18.91,0.228l0.593-3.913l0.754-4.966
			c0,0,10.921,2.47,18.091,5.45l0.125,1.767L341.357,552.356z"/>
		<path style="fill:#9480AD;" d="M342.01,550.922l-18.897-2.735l0.68-4.482c0,0,10.921,2.47,18.091,5.45L342.01,550.922z"/>
	</g>
</g>
</svg>
