<svg width="35" height="35" viewBox="0 0 35 35" fill="none" xmlns="http://www.w3.org/2000/svg">
<rect width="35" height="35" rx="17.5" fill="#0F3972"/>
<path d="M17 17C15.9 17 14.9583 16.6083 14.175 15.825C13.3917 15.0417 13 14.1 13 13C13 11.9 13.3917 10.9583 14.175 10.175C14.9583 9.39167 15.9 9 17 9C18.1 9 19.0417 9.39167 19.825 10.175C20.6083 10.9583 21 11.9 21 13C21 14.1 20.6083 15.0417 19.825 15.825C19.0417 16.6083 18.1 17 17 17ZM9 23V22.2C9 21.6333 9.14583 21.1125 9.4375 20.6375C9.72917 20.1625 10.1167 19.8 10.6 19.55C11.6333 19.0333 12.6833 18.6458 13.75 18.3875C14.8167 18.1292 15.9 18 17 18C18.1 18 19.1833 18.1292 20.25 18.3875C21.3167 18.6458 22.3667 19.0333 23.4 19.55C23.8833 19.8 24.2708 20.1625 24.5625 20.6375C24.8542 21.1125 25 21.6333 25 22.2V23C25 23.55 24.8042 24.0208 24.4125 24.4125C24.0208 24.8042 23.55 25 23 25H11C10.45 25 9.97917 24.8042 9.5875 24.4125C9.19583 24.0208 9 23.55 9 23Z" fill="white"/>
</svg>
