<svg width="30" height="30" viewBox="0 0 30 30" fill="none" xmlns="http://www.w3.org/2000/svg">
<path d="M15 22.8438L9.8125 25.9688C9.58334 26.1146 9.34375 26.1771 9.09375 26.1562C8.84375 26.1354 8.625 26.0521 8.4375 25.9062C8.25 25.7604 8.10417 25.5781 8 25.3594C7.89584 25.1406 7.875 24.8958 7.9375 24.625L9.3125 18.7188L4.71875 14.75C4.51042 14.5625 4.38021 14.349 4.32813 14.1094C4.27605 13.8698 4.29167 13.6354 4.375 13.4062C4.45834 13.1771 4.58334 12.9896 4.75 12.8438C4.91667 12.6979 5.14584 12.6042 5.4375 12.5625L11.5 12.0312L13.8438 6.46875C13.9479 6.21875 14.1094 6.03125 14.3281 5.90625C14.5469 5.78125 14.7708 5.71875 15 5.71875C15.2292 5.71875 15.4531 5.78125 15.6719 5.90625C15.8906 6.03125 16.0521 6.21875 16.1563 6.46875L18.5 12.0312L24.5625 12.5625C24.8542 12.6042 25.0833 12.6979 25.25 12.8438C25.4167 12.9896 25.5417 13.1771 25.625 13.4062C25.7083 13.6354 25.724 13.8698 25.6719 14.1094C25.6198 14.349 25.4896 14.5625 25.2813 14.75L20.6875 18.7188L22.0625 24.625C22.125 24.8958 22.1042 25.1406 22 25.3594C21.8958 25.5781 21.75 25.7604 21.5625 25.9062C21.375 26.0521 21.1563 26.1354 20.9063 26.1562C20.6563 26.1771 20.4167 26.1146 20.1875 25.9688L15 22.8438Z" fill="#0F3972"/>
</svg>
