<svg width="34" height="27" viewBox="0 0 34 27" fill="none" xmlns="http://www.w3.org/2000/svg">
<path d="M1.6875 27C1.20938 27 0.808594 26.8383 0.485156 26.5148C0.161719 26.1914 0 25.7906 0 25.3125C0 24.8344 0.161719 24.4336 0.485156 24.1102C0.808594 23.7867 1.20938 23.625 1.6875 23.625H32.0625C32.5406 23.625 32.9414 23.7867 33.2648 24.1102C33.5883 24.4336 33.75 24.8344 33.75 25.3125C33.75 25.7906 33.5883 26.1914 33.2648 26.5148C32.9414 26.8383 32.5406 27 32.0625 27H1.6875ZM5.0625 20.25C4.58437 20.25 4.18359 20.0883 3.86016 19.7648C3.53672 19.4414 3.375 19.0406 3.375 18.5625V8.4375C3.375 7.95937 3.53672 7.55859 3.86016 7.23516C4.18359 6.91172 4.58437 6.75 5.0625 6.75C5.54063 6.75 5.94141 6.91172 6.26484 7.23516C6.58828 7.55859 6.75 7.95937 6.75 8.4375V18.5625C6.75 19.0406 6.58828 19.4414 6.26484 19.7648C5.94141 20.0883 5.54063 20.25 5.0625 20.25ZM11.8125 20.25C11.3344 20.25 10.9336 20.0883 10.6102 19.7648C10.2867 19.4414 10.125 19.0406 10.125 18.5625V1.6875C10.125 1.20938 10.2867 0.808594 10.6102 0.485156C10.9336 0.161719 11.3344 0 11.8125 0C12.2906 0 12.6914 0.161719 13.0148 0.485156C13.3383 0.808594 13.5 1.20938 13.5 1.6875V18.5625C13.5 19.0406 13.3383 19.4414 13.0148 19.7648C12.6914 20.0883 12.2906 20.25 11.8125 20.25ZM18.5625 20.25C18.0844 20.25 17.6836 20.0883 17.3602 19.7648C17.0367 19.4414 16.875 19.0406 16.875 18.5625V1.6875C16.875 1.20938 17.0367 0.808594 17.3602 0.485156C17.6836 0.161719 18.0844 0 18.5625 0C19.0406 0 19.4414 0.161719 19.7648 0.485156C20.0883 0.808594 20.25 1.20938 20.25 1.6875V18.5625C20.25 19.0406 20.0883 19.4414 19.7648 19.7648C19.4414 20.0883 19.0406 20.25 18.5625 20.25ZM30.1641 19.4062C29.7703 19.6313 29.3414 19.6805 28.8773 19.5539C28.4133 19.4273 28.0688 19.1672 27.8438 18.7734L22.7812 9.91406C22.5562 9.52031 22.507 9.09141 22.6336 8.62734C22.7602 8.16328 23.0203 7.81875 23.4141 7.59375C23.8078 7.36875 24.2367 7.31953 24.7008 7.44609C25.1648 7.57266 25.5094 7.83281 25.7344 8.22656L30.7969 17.0859C31.0219 17.4797 31.0711 17.9086 30.9445 18.3727C30.818 18.8367 30.5578 19.1812 30.1641 19.4062Z" fill="#003852"/>
</svg>
