<svg xmlns="http://www.w3.org/2000/svg" xmlns:xlink="http://www.w3.org/1999/xlink" viewBox="0 0 400 300" data-imageid="report-analysis-isometric-109e6" imageName="Report analysis" class="illustrations_image" style="width: 188px;"><defs><linearGradient id="linear-gradient" x1="309.64" y1="195.74" x2="244.95" y2="235.01" gradientUnits="userSpaceOnUse"><stop offset="0" stop-color="#f7931e"/><stop offset="1" stop-color="#fff"/></linearGradient><linearGradient id="linear-gradient-2" x1="163.19" y1="256.84" x2="150.73" y2="273.93" xlink:href="#linear-gradient"/><linearGradient id="linear-gradient-3" x1="208.74" y1="173.94" x2="170.87" y2="225.93" xlink:href="#linear-gradient"/><linearGradient id="linear-gradient-4" x1="87.75" y1="220.07" x2="77.93" y2="233.55" xlink:href="#linear-gradient"/></defs><title>101-110</title><g style="isolation:isolate"><g id="Layer_2" data-name="Layer 2"><path d="M343.07,185.49l-115.5-67.17a5.46,5.46,0,0,0-5.46,0L49.39,217.17a5.46,5.46,0,0,0,0,9.47l110.45,63.77a17.83,17.83,0,0,0,17.83,0l165.4-95.46A5.46,5.46,0,0,0,343.07,185.49Z" fill="#f4b269"/><path d="M309.83,188.05c-5.08,3.36-62.69,37.32-67.71,40.76,8.54,4.71,11,6,11.92,6.69l68.43-39.56Z" fill="url(#linear-gradient)" style="mix-blend-mode:multiply"/><path d="M152,255.76c-5.08,3.36-20.46,10.24-25.48,13.68,8.54,4.71,27.69,15.62,28.64,16.3l24.26-13.47Z" fill="url(#linear-gradient-2)" style="mix-blend-mode:multiply"/><path d="M182.5,167.12c-15.3,10.13-60.63,41.69-75.76,52.07,25.74,14.21,70.8,39.55,73.64,41.6L248.63,214Z" fill="url(#linear-gradient-3)" style="mix-blend-mode:multiply"/><polygon points="314.56 163.96 322.48 159.38 322.48 195.94 315.08 200.21 314.56 163.96" fill="#ffa75f"/><polygon points="314.56 163.96 306.63 159.38 306.81 195.45 315.08 200.21 314.56 163.96" fill="#ef8a3f"/><polygon points="306.63 159.38 314.56 154.73 322.48 159.38 314.56 163.96 306.63 159.38" fill="#ffb37b"/><polygon points="300.3 178.56 308.23 173.98 308.23 204.14 300.73 208.38 300.3 178.56" fill="#68e1fd" class="target-color"/><polygon points="300.3 178.56 292.37 173.98 292.52 203.56 300.73 208.38 300.3 178.56" fill="#68e1fd" class="target-color"/><polygon points="292.37 173.98 300.3 169.34 308.23 173.98 300.3 178.56 292.37 173.98" fill="#68e1fd" class="target-color"/><polygon points="300.3 178.56 308.23 173.98 308.23 204.14 300.73 208.38 300.3 178.56" fill="#68e1fd" class="target-color"/><polygon points="300.3 178.56 292.37 173.98 292.52 203.56 300.73 208.38 300.3 178.56" opacity="0.19"/><polygon points="292.37 173.98 300.3 169.34 308.23 173.98 300.3 178.56 292.37 173.98" fill="#fff" opacity="0.53"/><polygon points="284.84 192.63 292.77 188.05 293.15 212.85 284.84 217.72 284.84 192.63" fill="#68e1fd" class="target-color"/><polygon points="284.84 192.63 276.91 188.05 276.91 213.05 284.84 217.72 284.84 192.63" fill="#68e1fd" class="target-color"/><polygon points="284.84 192.63 276.91 188.05 276.91 213.05 284.84 217.72 284.84 192.63" opacity="0.19"/><polygon points="276.91 188.05 284.84 183.41 292.77 188.05 284.84 192.63 276.91 188.05" fill="#68e1fd" class="target-color"/><polygon points="276.91 188.05 284.84 183.41 292.77 188.05 284.84 192.63 276.91 188.05" fill="#fff" opacity="0.53"/><polygon points="268.58 208.93 276.5 204.35 276.78 222.21 268.58 226.85 268.58 208.93" fill="#ed7e7e"/><polygon points="268.58 208.93 260.65 204.35 260.65 222.23 268.58 226.85 268.58 208.93" fill="#e26d6d"/><polygon points="260.65 204.35 268.58 199.71 276.5 204.35 268.58 208.93 260.65 204.35" fill="#fc9d9d"/><path d="M281.63,59.26s16.72,4.22,11.8,31.09L256.78,69.6S271.61,56.69,281.63,59.26Z" fill="#68e1fd" class="target-color"/><path d="M281.63,59.26s16.72,4.22,11.8,31.09L256.78,69.6S271.61,56.69,281.63,59.26Z" fill="#06489e" opacity="0.39"/><path d="M231.47,224.36c-28.78-16.79-54-31.2-82.21-47.46,2.13-1,3.42-2.16,5.34-3.08,52.27-25.07,32.6-62,32.41-99.88-.06-12.1.19-24.76,3.9-36.5,1.36-4.28,3.18-8.82,6.51-12.24,1.87-1.92,4.56-4.16,7.45-4.74,3.22-.64,6.28,1.56,8.85,2.91l9,4.72,23.72,12.45,19.24,10.1,3.4,1.78,14.19,7.45c-2.7-1.42-8.56,3.38-10,4.87-3.33,3.42-5.15,8-6.51,12.24-3.72,11.74-4,24.39-3.9,36.5C263,150.88,281.09,199,231.47,224.36Z" fill="#68e1fd" class="target-color"/><path d="M211.36,89.7v11.73l-3.08-2V88C209.33,88.52,210.36,89.08,211.36,89.7Z" fill="#fff"/><path d="M205.2,82.2V98l-3.08-2V80.69Z" fill="#fff"/><path d="M199,74V94.79l-3.08-2V72.74C197,73.19,198,73.62,199,74Z" fill="#fff"/><path d="M235.3,103.34c-2.68-2.75-5.56-4.2-8.27-4.2a7.31,7.31,0,0,0-1.52.16,8.73,8.73,0,0,0-5.12,3.53,50.41,50.41,0,0,0-3.86-4.75,14.21,14.21,0,0,1,7.74-4.65c5.21-1.1,10.65.93,15.32,5.72a30.07,30.07,0,0,1,3.71,4.69c-1.71,1-3.38,2.14-5,3.24A24.16,24.16,0,0,0,235.3,103.34Z" fill="#56403d"/><path d="M235.28,145.62c2.87-.86,5.24-3.5,6.73-7.51a30.65,30.65,0,0,0,.76-16.72,34.24,34.24,0,0,0-3.83-10.14c1.67-1.1,3.34-2.21,5-3.24a40.18,40.18,0,0,1,4.65,12.14,36.69,36.69,0,0,1-1,20.05c-2.14,5.75-5.8,9.63-10.4,11.09C236.63,149.38,236,147.48,235.28,145.62Z" fill="#ffa197"/><path d="M212.58,107.94a22.3,22.3,0,0,1,3.12-5.78,50.31,50.31,0,0,1,3.92,4.89,17.74,17.74,0,0,0-1.42,3,30.65,30.65,0,0,0-.76,16.72,30.65,30.65,0,0,0,7.47,15c2.95,3,6.15,4.48,9.08,4.15.75,1.88,1.39,3.81,2,5.75h0a13.47,13.47,0,0,1-2.79.29c-4.32,0-8.69-2.07-12.53-6a36.69,36.69,0,0,1-9-17.92A36.69,36.69,0,0,1,212.58,107.94Z" fill="#f2f2f2"/><ellipse cx="227.87" cy="122.99" rx="3.75" ry="6.79" transform="translate(-12.21 25.97) rotate(-6.35)" fill="#f2f2f2"/><path d="M253.68,87.46,194.57,52.9a.75.75,0,0,0-.76,1.3l59.11,34.56a.75.75,0,0,0,.76-1.3Z" fill="#f2f2f2"/><path d="M256.18,81.74,197.07,47.18a.75.75,0,0,0-.76,1.3L255.43,83a.75.75,0,0,0,.76-1.3Z" fill="#f2f2f2"/><path d="M253.68,93.74,194.57,59.18a.75.75,0,0,0-.76,1.3L252.92,95a.75.75,0,0,0,.76-1.3Z" fill="#f2f2f2"/><path d="M253.68,173.26,194.57,138.7a.75.75,0,0,0-.76,1.3l59.11,34.56a.75.75,0,0,0,.76-1.3Z" fill="#f2f2f2"/><path d="M253.26,179.68l-59.11-34.56a.75.75,0,0,0-.76,1.3L252.5,181a.75.75,0,0,0,.76-1.3Z" fill="#f2f2f2"/><path d="M252.12,185.84,193,151.28a.75.75,0,0,0-.76,1.3l59.11,34.56a.75.75,0,0,0,.76-1.3Z" fill="#f2f2f2"/><path d="M204.35,164.22l9.18,33.1s-.78,9-12.47,5.24l-8-34.92S194.89,159.89,204.35,164.22Z" fill="#ff7b39"/><path d="M190.54,148.65l5.79,19.62s5,2.55,6.52-2.3l-4.74-19.13Z" fill="#3b125e"/><path d="M181.52,144.09c-5.56-4.36-10.1-11.07-12.78-18.89s-3.21-15.9-1.49-22.75c1.85-7.37,6.06-12.52,11.84-14.5h0c11.6-4,25.23,6.16,31,23.08s1.25,33.28-10.36,37.26a16.37,16.37,0,0,1-9.24.36A23.73,23.73,0,0,1,181.52,144.09Zm-.26-49.84c-3.58,1.23-6.26,4.71-7.54,9.82-1.41,5.62-.94,12.36,1.33,19s6,12.23,10.58,15.8c4.14,3.25,8.39,4.36,12,3.13,7.8-2.67,10.64-15.86,6.21-28.79-3.44-10-10.44-17.52-17-19.11A9.78,9.78,0,0,0,181.26,94.25Z" fill="#3b125e"/><path d="M188.45,97.13c-1.73-1.27-5.65.82-6.89,2-10.29,9.63-5.34,27.65,3.57,36.83,3.34,3.44,11.21,8.15,14.11,6.18,0,0-12.87,8.7-22.06-.91S165.75,113,165.75,113l.57-9.81,3.37-6.56L173.11,93l8.44-.93Z" fill="#3b125e"/><path d="M178.4,145c-5.56-4.36-10.1-11.07-12.78-18.89s-3.21-15.9-1.49-22.75C166,96,170.19,90.84,176,88.86h0c11.6-4,25.23,6.16,31,23.08s1.25,33.28-10.36,37.26a16.37,16.37,0,0,1-9.24.36A23.73,23.73,0,0,1,178.4,145Zm-.26-49.84c-3.58,1.23-6.26,4.71-7.54,9.82-1.41,5.62-.94,12.36,1.33,19s6,12.23,10.58,15.8c4.14,3.25,8.39,4.36,12,3.13,7.8-2.67,10.64-15.86,6.21-28.79-3.44-10-10.44-17.52-17-19.11A9.78,9.78,0,0,0,178.14,95.16Z" fill="#662d91"/><path d="M173,147.26a10.18,10.18,0,0,1,.69-1.36.15.15,0,0,0,0,.07.18.18,0,0,0,.33.06l.5-.76a.88.88,0,0,0,0,.3.76.76,0,0,0,.84.6.75.75,0,0,0,.67-.95l.23-.27a.75.75,0,0,0,0,.23.66.66,0,0,0,1.09.27c.09-.07.17-.16.25-.24a.55.55,0,0,0,.44,0,17.07,17.07,0,0,0,1.91-.78.29.29,0,0,1-.1-.47,19.06,19.06,0,0,1,2.32-1.6l.1,0,0-.08a2.6,2.6,0,0,0-.12-1.87,2,2,0,0,0,.42-1.73.31.31,0,0,1-.17-.07,1.41,1.41,0,0,1-.29-.35,2,2,0,0,1-.32-.6.27.27,0,0,1,.1-.3c-.3-.4-.65-.78-1-1.13a7.62,7.62,0,0,0,1-4.28.66.66,0,0,0-1.22-.31,13.8,13.8,0,0,0-.8,1.47.55.55,0,0,0-.19.21,80.85,80.85,0,0,1-4.27,7.67c-.26.42-3.5,4.88-3.13,5C172.41,146.13,169.75,152.25,173,147.26Zm1.92-1.89s0,0,0,0a.17.17,0,0,0,.26,0l0,0a.67.67,0,0,0,.56.11.43.43,0,0,1-.85-.06Z" fill="#fcbf81"/><path d="M173.37,145.84a7.08,7.08,0,0,0,1.75-2,1.37,1.37,0,0,1,1.89-.53,8,8,0,0,0,.08-1.08c0-1.84,2.9-1.87,2.87,0a7,7,0,0,1-1.11,4.1,11.74,11.74,0,0,1-3.12,2.76,1.47,1.47,0,0,1-2.18-1.11l-.13-.1A1.44,1.44,0,0,1,173.37,145.84Z" fill="#fcbf81"/><path d="M178,146.93a5.81,5.81,0,0,0,2.43-3.4.16.16,0,0,0,.23.05l1.14-.77a2.68,2.68,0,0,0,.64-.53c.41-.53,0-1.14-.17-1.69a.18.18,0,0,0-.07-.08l.16-.27a2.45,2.45,0,0,0,.43-1.42c-.08-.5-.55-.83-.77-1.25a1.11,1.11,0,0,0-.67-1.22c-.61-.28-.95.19-1.28.63q-1.06,1.44-2,3c-.12.2.19.37.31.17.34-.55.69-1.09,1.05-1.62a6.75,6.75,0,0,1,1.15-1.61c1.28-.74,1,1,.82,1.48-.12.27-.28.52-.42.77l-1,1.7a.17.17,0,0,0,0,0,.16.16,0,0,0,0,.14,5,5,0,0,1-2.2,5.59C177.59,146.75,177.77,147.06,178,146.93Zm2.6-5.83a.16.16,0,0,0-.19,0l0-.12a13.62,13.62,0,0,0,1.56-2.92c.09.11.18.22.27.35a1.09,1.09,0,0,1,.07,1.2C182,140.18,181.34,141.55,180.56,141.1Zm-.12,2.18a5,5,0,0,0,0-1.84c.61.3,1.13-.1,1.52-.6a4,4,0,0,1,.25.71.74.74,0,0,1-.38.79C181.38,142.68,180.91,143,180.45,143.28Z" fill="#34323d"/><path d="M157.49,152.71s8.36.4,10.54-1.6,5.31-8.31,5.31-8.31,5.76,3.7,6,5.84-6,12.43-8.82,13.13" fill="#e55600"/><path d="M144.81,255.79s7.07-3.14,8.77-3.27,4.54.46,2.06,3.58c0,0-7.43,4.86-8.41,5s-3.36-.59-3.42-.34-.28,2.13-.28,2.13-6.21,2.37-6.49-1.79c0-.54.9-8.25.9-8.25" fill="#e55600"/><path d="M136.7,237.58c1.23-8,3.48-15.73,4.41-23.81.59-5.09,1-10.2,1.64-15.28s2.52-10,3.74-15a.55.55,0,0,0-.25-.62c.06-.18.11-.35.17-.53.63-.6,1.27-1.17,1.89-1.71l8.69,5.85s-.05,5.32-.32,13c-1,4.49-1.78,8.5-2.92,12.76a1.12,1.12,0,0,1,.27,1,360.85,360.85,0,0,0-6.17,40.64,1.18,1.18,0,0,1-.78,1l-.24,2.1c-7.56,2.92-9.22-2.16-9.22-2.16s-.34-4.33-.77-10.34C136.69,242.2,136.65,239.88,136.7,237.58Z" fill="#34323d"/><path d="M200.66,156.08c-.45.27-.93.57-1.49.95a20.07,20.07,0,0,0,2-3c.56-.94-.83-1.7-1.51-1a59,59,0,0,1-6.21,5.84,1,1,0,0,0-.25.29l-1.36,0c-.4,0-.79,0-1.16,0l-.32,0a.83.83,0,0,0-.76.23,2.63,2.63,0,0,0-.51.24.85.85,0,0,0-.14.12c-.44.05-.89.08-1.33.14a1,1,0,0,0-.73,1.39l-.19-.11c-1-.62-1.8,1-.8,1.65a13.41,13.41,0,0,0,7,2,.8.8,0,0,0,.79.1l.42-.16a20.33,20.33,0,0,0,6.16-1.28,5.57,5.57,0,0,1,1.64-.37h0C201.56,160.71,201.09,158.4,200.66,156.08Z" fill="#fcbf81"/><path d="M160.27,267.41l4.2,1.5a2.31,2.31,0,0,0,1.7,1.55.93.93,0,0,0,.59.33,11,11,0,0,0,5-.81c2-.63,9.86-3.63,7.68,2-1.43,1-3,1.87-4.5,2.77-.82.5-1.65,1-2.5,1.47a5,5,0,0,1-1.47.68c-1.13.17-3.87-.68-3.94-.39s-.32,2.45-.32,2.45-7.15,2.73-7.46-2.06C159.2,276.28,160.27,267.41,160.27,267.41Z" fill="#e55600"/><path d="M154.37,224.45c-.88-14.12-1.36-28.33-4.34-42.21-.13-3.61-2.47-1.3-2.31-2.73,1.27-11.62,18.19,2.21,18.19,2.21.69.56.77,4.12.91,4.93q1.15,6.69,2,13.43c2.8,22.68,1.77,45.25.62,68-3.59,3.67-5.95,4.77-11.74,2.4-1.16-14.89-2.26-29.79-3.21-44.69Z" fill="#34323d"/><path d="M163.41,154.25c-.16-.74-2.06-1.23-2.62-1.53-1.31-.71-.54-2-1.83-2.72a44.06,44.06,0,0,0-5.81-2.83h-.05c-3.21,0-8.59-.18-8.92,4.11-.5,6.61.08,13.18.59,19.76.21,2.64.44,5.26.67,7.84.08.94.21,8.57.77,8.8,6.37,2.64,14.52,1.71,20.76-.76A211.93,211.93,0,0,0,163.41,154.25Z" fill="#e55600"/><path d="M157.69,160.92a10.77,10.77,0,0,0,7.91,9.46c0,.44.13,3.12.18,3.56-5.09-1.22-8.84-7.61-9.37-13C156.34,160.1,157.61,160.11,157.69,160.92Z" fill="#34323d"/><path d="M154.59,133.81c.42.11,4,8.3,2.58,13.27s-9.84-.14-12-3.93S146.59,131.74,154.59,133.81Z" fill="#fcbf81"/><path d="M154.47,135a3.93,3.93,0,0,1-2.36,3.58c-2.37.87-4.33,1.46-4.2,2.56s4.28-.15,4.29,2.35a18.66,18.66,0,0,1-.68,5c-.26,1.23-7.36-2.53-9.69-8.95s3.52-8.11,3.8-8.16.81-1.79,3.68-2.41,3.68.49,3.68.49a3.48,3.48,0,0,1,4.19.45c2.65,2.1,2,5.94-1,7.5Z" fill="#34323d"/><path d="M157.68,149.28s14.61,8.37,19.87,8.38c3.8,0,11.32-1.23,15.19-1.92,3.62,3.07,3.86,8.44,1.61,12.54-6.38,1-25.27,3.76-31.2.82-7.18-3.56-15.06-8.32-15.06-8.32S141,153.79,157.68,149.28Z" fill="#e55600"/><path d="M199.17,157s2.19-1.8,2.75-1.43,1.9,3.42,1.72,5.23-1.11,3.34-5.6,3.29" fill="#fcbf81"/><path d="M83,221c-6,4-12.19,7.64-18.3,11.43,5.79,3.28,11.27,6.43,11.71,6.75l19.13-10.62Z" fill="url(#linear-gradient-4)" style="mix-blend-mode:multiply"/><path d="M78.65,208.25S76.44,226,86.49,229.4s15.42-5.49,15.58-21.15" fill="#68e1fd" class="target-color"/><ellipse cx="90.36" cy="208.25" rx="11.71" ry="6.32" fill="#06577a"/><path d="M90.36,208.25s0-24.55-12.54-34.53c0,0-6.69,4-5,10.11s8.88,1.57,10.12,4.78-2.47,4.15.06,7.42S90.36,201.93,90.36,208.25Z" fill="#99ce34"/><path d="M92.9,206.17s-1-28.46,5.3-36.91,10.47,3.15,7.62,8.33-7.81,3.88-6,8.33,4.87,6.78,1.38,8.69S92.64,202.56,92.9,206.17Z" fill="#99ce34"/></g></g></svg>