<svg width="30" height="30" viewBox="0 0 30 30" fill="none" xmlns="http://www.w3.org/2000/svg">
<path d="M15 27.5C13.2708 27.5 11.6458 27.1719 10.125 26.5156C8.60417 25.8594 7.28125 24.9688 6.15625 23.8438C5.03125 22.7188 4.14062 21.3958 3.48438 19.875C2.82812 18.3542 2.5 16.7292 2.5 15C2.5 13.2708 2.82812 11.6458 3.48438 10.125C4.14062 8.60417 5.03125 7.28125 6.15625 6.15625C7.28125 5.03125 8.60417 4.14062 10.125 3.48438C11.6458 2.82812 13.2708 2.5 15 2.5C16 2.5 16.974 2.61458 17.9219 2.84375C18.8698 3.07292 19.7812 3.40625 20.6562 3.84375C20.9688 4.01042 21.1719 4.26042 21.2656 4.59375C21.3594 4.92708 21.3021 5.23958 21.0938 5.53125C20.8854 5.82292 20.6094 6.01042 20.2656 6.09375C19.9219 6.17708 19.5833 6.13542 19.25 5.96875C18.5833 5.65625 17.8906 5.41667 17.1719 5.25C16.4531 5.08333 15.7292 5 15 5C12.2292 5 9.86979 5.97396 7.92188 7.92188C5.97396 9.86979 5 12.2292 5 15C5 17.7708 5.97396 20.1302 7.92188 22.0781C9.86979 24.026 12.2292 25 15 25C17.7708 25 20.1302 24.026 22.0781 22.0781C24.026 20.1302 25 17.7708 25 15C25 14.8333 24.9948 14.6719 24.9844 14.5156C24.974 14.3594 24.9583 14.1979 24.9375 14.0312C24.8958 13.6771 24.9635 13.3385 25.1406 13.0156C25.3177 12.6927 25.5833 12.4792 25.9375 12.375C26.2708 12.2708 26.5833 12.3021 26.875 12.4688C27.1667 12.6354 27.3333 12.8854 27.375 13.2188C27.4167 13.5104 27.4479 13.8021 27.4688 14.0938C27.4896 14.3854 27.5 14.6875 27.5 15C27.5 16.7292 27.1719 18.3542 26.5156 19.875C25.8594 21.3958 24.9688 22.7188 23.8438 23.8438C22.7188 24.9688 21.3958 25.8594 19.875 26.5156C18.3542 27.1719 16.7292 27.5 15 27.5ZM13.25 17.25L24.875 5.59375C25.1042 5.36458 25.3906 5.24479 25.7344 5.23438C26.0781 5.22396 26.375 5.34375 26.625 5.59375C26.8542 5.82292 26.9688 6.11458 26.9688 6.46875C26.9688 6.82292 26.8542 7.11458 26.625 7.34375L14.125 19.875C13.875 20.125 13.5833 20.25 13.25 20.25C12.9167 20.25 12.625 20.125 12.375 19.875L8.8125 16.3125C8.58333 16.0833 8.46875 15.7917 8.46875 15.4375C8.46875 15.0833 8.58333 14.7917 8.8125 14.5625C9.04167 14.3333 9.33333 14.2188 9.6875 14.2188C10.0417 14.2188 10.3333 14.3333 10.5625 14.5625L13.25 17.25Z" fill="#0F3972"/>
</svg>
