<svg width="29" height="27" viewBox="0 0 29 27" fill="none" xmlns="http://www.w3.org/2000/svg">
<path d="M0.484138 24.2814L8.41655 16.349C8.98759 15.7779 9.69517 15.4924 10.5393 15.4924C11.3834 15.4924 12.091 15.7779 12.6621 16.349L16.4979 20.1848L26.0317 9.42207C26.3048 9.09931 26.6586 8.93793 27.0931 8.93793C27.5276 8.93793 27.8938 9.0869 28.1917 9.38483C28.4648 9.65793 28.6076 9.9869 28.62 10.3717C28.6324 10.7566 28.5021 11.0979 28.229 11.3959L18.5834 22.2703C18.0124 22.9159 17.3048 23.2572 16.4607 23.2945C15.6166 23.3317 14.8841 23.04 14.2634 22.4193L10.5393 18.6952L2.71862 26.5159C2.39586 26.8386 2.02345 27 1.60138 27C1.17931 27 0.806897 26.8386 0.484138 26.5159C0.161379 26.1931 0 25.8207 0 25.3986C0 24.9766 0.161379 24.6041 0.484138 24.2814ZM0.484138 15.3434L8.41655 7.41103C8.98759 6.84 9.69517 6.55448 10.5393 6.55448C11.3834 6.55448 12.091 6.84 12.6621 7.41103L16.4979 11.2469L26.0317 0.484138C26.3048 0.161379 26.6586 0 27.0931 0C27.5276 0 27.8938 0.148966 28.1917 0.446897C28.4648 0.72 28.6076 1.04897 28.62 1.43379C28.6324 1.81862 28.5021 2.16 28.229 2.45793L18.5834 13.3324C18.0124 13.9779 17.3048 14.3193 16.4607 14.3566C15.6166 14.3938 14.8841 14.1021 14.2634 13.4814L10.5393 9.75724L2.71862 17.5779C2.39586 17.9007 2.02345 18.0621 1.60138 18.0621C1.17931 18.0621 0.806897 17.9007 0.484138 17.5779C0.161379 17.2552 0 16.8828 0 16.4607C0 16.0386 0.161379 15.6662 0.484138 15.3434Z" fill="#0F3972"/>
</svg>
