<svg xmlns="http://www.w3.org/2000/svg" xmlns:xlink="http://www.w3.org/1999/xlink" viewBox="0 0 400 300" data-imageid="step-2-isometric" imageName="Step 2" class="illustrations_image" style="width: 188px;"><defs><linearGradient id="linear-gradient" x1="257.08" y1="269.65" x2="241.68" y2="243.84" gradientUnits="userSpaceOnUse"><stop offset="0" stop-color="#fff" stop-opacity="0"/><stop offset="0.99" stop-color="#ffa86a"/></linearGradient><linearGradient id="linear-gradient-2" x1="144.69" y1="203.56" x2="140.39" y2="196.18" gradientUnits="userSpaceOnUse"><stop offset="0" stop-color="#fff" stop-opacity="0"/><stop offset="0.99" stop-color="#7daa63"/></linearGradient><linearGradient id="linear-gradient-3" x1="331.59" y1="217.48" x2="324.76" y2="205.77" xlink:href="#linear-gradient"/></defs><title>151-160</title><g style="isolation:isolate"><g id="Layer_2" data-name="Layer 2"><path d="M27,165.24,162.62,86.38a6.41,6.41,0,0,1,6.41,0L371.82,202.43a6.41,6.41,0,0,1,0,11.12L242.16,288.42a20.93,20.93,0,0,1-20.93,0L27,176.34A6.41,6.41,0,0,1,27,165.24Z" fill="#ffb3a6"/><path d="M235.45,295.82c35.88-23.7,56.62-26,90-50.55-21.15-11-57.08-32.47-70.13-40.63l-88.95,51.95,67.39,39.25Z" opacity="0.63" fill="url(#linear-gradient)" style="mix-blend-mode:multiply"/><polygon points="101.08 220.01 179.05 264.12 270.1 211.1 270.1 175.45 179.05 228.47 101.08 183.9 101.08 220.01" fill="#a0d700"/><polygon points="101.08 183.9 193.87 130.67 270.1 175.45 179.05 228.47 101.08 183.9" fill="#cbed4f"/><polygon points="179.05 228.47 179.05 264.12 270.1 211.1 270.1 175.45 179.05 228.47" fill="#93bc00"/><polyline points="122.11 136.3 122.11 171.91 200.23 216.36 234.76 196.42 234.76 160.37" fill="#68e1fd" class="target-color"/><polygon points="199.43 181.24 200.23 216.36 270.1 175.45 270.61 139.2 199.43 181.24" fill="#68e1fd" class="target-color"/><polyline points="122.11 136.3 122.11 171.91 200.23 216.36 200.23 216.36 199.43 181.24" opacity="0.15"/><polygon points="199.43 181.24 270.61 139.2 195.18 94.78 122.11 136.3 199.43 181.24" fill="#68e1fd" class="target-color"/><polygon points="199.43 181.24 200.23 216.36 270.1 175.45 270.61 139.2 199.43 181.24" opacity="0.21"/><path d="M206,122.18l-3.36,1.59,2.07,1L202.09,126,200,125l-4.22,2c-.33.16-.5.35-.5.56s.18.41.55.58a4.1,4.1,0,0,0,.59.22,4,4,0,0,0,.51.13l.17,0-2.5,1.18a9.35,9.35,0,0,1-2.14-.69l-.06,0q-3.21-1.49.47-3.23l4.33-2-1.76-.82,2.61-1.23.93.43a2.58,2.58,0,0,0,1.21.19,3.44,3.44,0,0,0,1.35-.32l1.95-.92Z" fill="#fff"/><path d="M211.33,132.38l-1.29.51-7.37-3.43a1.08,1.08,0,0,0-.59,1.1c.08.41.48.79,1.22,1.13a6.83,6.83,0,0,0,1.79.53,8.59,8.59,0,0,0,1.6.14l.62,0-.5,1.59h-.38l-1,0c-.49,0-1-.08-1.45-.14a13.23,13.23,0,0,1-1.65-.36,10.78,10.78,0,0,1-1.73-.62c-1.49-.69-2.22-1.54-2.2-2.54s.8-1.86,2.33-2.58a13.16,13.16,0,0,1,5.47-1.12,12.31,12.31,0,0,1,5.37,1c1.45.67,2.16,1.48,2.11,2.4S212.84,131.66,211.33,132.38Zm-6.61-3.88,4.67,2.17c.46-.32.67-.66.63-1s-.37-.68-1-1a5.16,5.16,0,0,0-2.06-.45,7.93,7.93,0,0,0-2.29.26" fill="#fff"/><path d="M196.4,116.1a7.6,7.6,0,0,1,1.51.9,3.73,3.73,0,0,1,.86.87,3,3,0,0,1,.34.72.94.94,0,0,1,.05.51l0,.19-3.93.11c0-.09,0-.2,0-.33a1.74,1.74,0,0,0-.35-.7,2.57,2.57,0,0,0-1.07-.84,4.8,4.8,0,0,0-1.92-.44,3.73,3.73,0,0,0-1.69.29c-.51.24-.67.55-.49.92a4.09,4.09,0,0,0,1,1.19,16.34,16.34,0,0,1,1.36,1.33,1.49,1.49,0,0,1,.41,1.5c-.16.54-.73,1-1.74,1.51a10.88,10.88,0,0,1-4.9.94,13.22,13.22,0,0,1-5.38-1.25,8.18,8.18,0,0,1-1.7-1,3.88,3.88,0,0,1-.94-1,3.18,3.18,0,0,1-.35-.85,1.29,1.29,0,0,1,0-.6l0-.24,3.83,0a3,3,0,0,0,0,.39,1.9,1.9,0,0,0,.43.88,3.39,3.39,0,0,0,1.4,1.09,5.89,5.89,0,0,0,2.31.56,4.45,4.45,0,0,0,2-.36c.51-.24.67-.55.5-.92a4.05,4.05,0,0,0-1-1.2,14.24,14.24,0,0,1-1.37-1.33,1.48,1.48,0,0,1-.39-1.49c.16-.54.73-1,1.73-1.51a10.27,10.27,0,0,1,4.56-.82A12.07,12.07,0,0,1,196.4,116.1Z" fill="#fff"/><path d="M245,138.67q2.22,1,2.25,2.36t-2,2.3a9.39,9.39,0,0,1-2.57.77,15,15,0,0,1-2.86.18c-1,0-1.89-.08-2.8-.16s-1.88-.13-2.91-.17a17.92,17.92,0,0,0-2.69.07l6.23,2.89-3,1.43-10.17-4.73a16.32,16.32,0,0,1,3.54-1.19,17.66,17.66,0,0,1,3.43-.41c1,0,2.1,0,3.18.07s2,.12,2.88.2a16,16,0,0,0,2.46,0,5.42,5.42,0,0,0,2-.44c.6-.29.9-.6.89-.93s-.34-.65-1-1a4.79,4.79,0,0,0-1.83-.41,7.27,7.27,0,0,0-1.68.08l-.62.14L236.31,138l.53-.13c.22,0,.67-.11,1.36-.18a16.06,16.06,0,0,1,2-.09,14.12,14.12,0,0,1,2.32.28A10.49,10.49,0,0,1,245,138.67Z" fill="#fff"/><path d="M226.37,135.89q-.15,1.44-2.47,2.53a13.33,13.33,0,0,1-5.38,1.18,11.25,11.25,0,0,1-5-.84,3.08,3.08,0,0,1-1.25-.94,1.26,1.26,0,0,1-.32-.85l.08-.33-5.86,2.76-2.8-1.3,15.19-7.17,2.8,1.3-1.31.62.28,0H221c.36,0,.72,0,1.07.06a9.38,9.38,0,0,1,1.21.22,6.45,6.45,0,0,1,1.24.42Q226.52,134.46,226.37,135.89Zm-8.21,1.83a7.11,7.11,0,0,0,2.83-.66c.86-.4,1.31-.85,1.38-1.33s-.25-.88-.95-1.21a5.71,5.71,0,0,0-2.59-.43,7.11,7.11,0,0,0-2.83.66c-.85.4-1.32.85-1.38,1.33s.25.89.94,1.21a5.66,5.66,0,0,0,2.59.43" fill="#fff"/><path d="M144.49,205.66c5.88-3.88,5.23-1.89,10.7-5.91-3.46-1.81-13.85-8.3-16-9.63l-12.28,4.77,11,6.43C138.06,201.33,144.4,205.67,144.49,205.66Z" opacity="0.63" fill="url(#linear-gradient-2)" style="mix-blend-mode:multiply"/><polyline points="142.11 100.08 137.28 125.88 151.45 109.66" fill="#ffede1"/><path d="M177.37,165.69c-1.17-.36-6.2-.08-6.2-.08s-.28-4.11-.16-4.3l-5.19-.18s-1.43,7.43-1.54,8.42c-.19,1.82,2,2.62,2.5,2.6a8.9,8.9,0,0,0,1.08-.32,15,15,0,0,1,0-2.87c.07-.43.19-.73.63-.85.79-.21,2.16.35,2.92.58s1.79.58,2.69.84c2.14-.86,4-1.71,4.15-2.11C178.72,166.43,179.16,166.24,177.37,165.69Z" fill="#ffede1"/><path d="M179.06,166.18,179,166c-.35-.42-1.39-.5-1.88-.56a24.45,24.45,0,0,0-5.91.14s4.74-.15,4.83.71a2.23,2.23,0,0,1-.68,1.88c-2.14,1.53-5-.7-6.79-1.72l-3.37-1.89-.53,2.85a21.42,21.42,0,0,0-.41,3.95c.2.43,2.18,1.75,2.64,1.57s1.93-.86,1.93-.86l.09-3.5s2.79,1.57,4.2,1.35C174.14,169.8,180.1,167.94,179.06,166.18Z" fill="#56403d"/><path d="M137.24,190.28c-.77-.36-1.92-.7-2.41-1.47a4.71,4.71,0,0,1-.24-2.79q.1-1.33.27-2.65a.44.44,0,0,1-.13-.34,16,16,0,0,1,.24-2.15l-3.59-.73s-2.26,6-2.23,6.74,3,5.78,4.7,6.28,6.75-.52,7.22-1.14l0-.06C139.81,191.43,138.52,190.88,137.24,190.28Z" fill="#ffede1"/><path d="M132.5,187.33s1.27,6.12,1.92,6.58,8.17-1.1,7.23-2.6c-.6-1-5-1.41-5.37-1.56,0,0,2.23,1,2.19,1.37s-3.09,1.41-3.21,1.12-2.75-5.81-2.75-5.81l-2.87-1.36-3,5.19,2,1.11s.46,1.72.68,1.74a24.2,24.2,0,0,0,2.23-2.86,8.09,8.09,0,0,0,.49,2.24c.27.24,2.48,2.49,3.75,1.08l-1.8-2.5" fill="#56403d"/><path d="M153.27,130.23c2.32-7.59,2.38-6.24,3.9-12.5l-15.18-4c-7.74,11.6-14.93,67.62-14.93,67.62s7.49,6,14,4.18c0,0,8.77-46.21,8.79-46.26C151.09,136.14,151.14,135.54,153.27,130.23Z" fill="#999a1c"/><path d="M175.59,133.14c-2.2-7.18-20.62-16-20.62-16l-6.42,19.44c.32-1,11.83,2,12.92,3.16,2.63,2.79,1.4,8.46,1,11.9,0,0-1.1,5.55-1.8,9.48,4.46,3.44,12.94,0,12.94,0S177.79,140.32,175.59,133.14Z" fill="#999a1c"/><path d="M150.86,136.57s-4.09-.65-6.36-2.51l-.83,34.72Z" fill="#7a770e"/><path d="M166.61,105.72l2,16.63s7.12,4.67,7.64,8.31l-.74,1.55-12.27-9.83-3.83-18" fill="#ffede1"/><path d="M166.61,105.72c-.76-5.65-2.28-10.86-6.34-15.21a14.55,14.55,0,0,0-2.88-2.2L155.13,107Z" fill="#b05800"/><path d="M145.63,89.06c-2.64,0-8.71,10.9-8.33,12.34s5.71,4.84,5.71,4.84" fill="#b05800"/><path d="M160,91.44h-.59c-3.05,0-6.42-4.14-6.42-4.14s-1.1-9.5-6.51-1.85c-4,5.72-5.1,21.9-5.38,29.73,2.17,1.6,5,2.14,7.64,2.44a32.44,32.44,0,0,0,5.29.26,7.85,7.85,0,0,0,3.13-.8l2.27-12.65A128.21,128.21,0,0,1,160,91.44Z" fill="#b05800"/><path d="M159.8,78.44s3.33,8.31-.95,10.1-7.11-2.18-7.36-3.16S152,77.09,159.8,78.44Z" fill="#ffede1"/><path d="M160.23,77.29a8.58,8.58,0,0,0-7-1.7,10.41,10.41,0,0,0-5.76,2.33,3.52,3.52,0,0,0-1.72-.78,3.66,3.66,0,0,0-3.87,1.9,3.17,3.17,0,0,0,.87,3.83,4,4,0,0,0,3,.57c0,.06,0,.12,0,.19,0,1.5-1.5,2.12-2.17,3.32a3,3,0,0,0-.4,1.83c.08.64.66,1.37.58,2A3,3,0,0,1,143,92a6.62,6.62,0,0,0-.85,1.31c2.8,1.89,6.5,2.25,9.78,1.9a16.69,16.69,0,0,0,9.72-4.06,2.47,2.47,0,0,0-.54-.92,9.23,9.23,0,0,0-1.67-1.1c-.83-.59.23-2,.28-2.87.09-1.43-.89-2.12-2-2.72-.81-.43-.8-1-.72-1.83a3.28,3.28,0,0,1,.61-1.93,1.11,1.11,0,0,0,.75-.08,6.09,6.09,0,0,1,1.47-.48,1,1,0,0,0,.73-1.19A.83.83,0,0,0,160.23,77.29Z" fill="#56403d"/><path d="M156.79,80.13a16,16,0,0,0,4-1c0-.13.89-5-8-4.17S147,86.68,147,86.68" fill="#56403d"/><path d="M331.27,220.82c9.33-6.16,8.3-3,17-9.37-5.5-2.86-22-13.16-25.37-15.28l-19.48,7.57,17.52,10.2C321.06,213.94,331.12,220.82,331.27,220.82Z" opacity="0.63" fill="url(#linear-gradient-3)" style="mix-blend-mode:multiply"/><polyline points="303.92 186.63 303.92 201.51 328 201.51 328 186.63" fill="#68e1fd" class="target-color"/><ellipse cx="315.96" cy="186.63" rx="12.04" ry="5.92" fill="#68e1fd" class="target-color"/><ellipse cx="315.96" cy="186.63" rx="12.04" ry="5.92" opacity="0.73"/><ellipse cx="315.96" cy="202.09" rx="12.04" ry="5.92" fill="#68e1fd" class="target-color"/><path d="M329.44,152c-2.54-1-6.06-4.5-9.13-4.39a36,36,0,0,0-1.86,9.13,82.89,82.89,0,0,0-.35,15.25q.11,1.7.28,3.39a2.7,2.7,0,0,0,.27,1q0,5.89,0,11.78a.37.37,0,0,0,.75,0q0-5.67,0-11.33a16.7,16.7,0,0,0,3.45-1.59,11.73,11.73,0,0,0,4.85-6.09c1.94-5.41.72-11.45,2.56-16.8C330,152.24,329.71,152.14,329.44,152Z" fill="#297600"/><path d="M324.23,143.17a9.43,9.43,0,0,0-3.44,3.52,5.9,5.9,0,0,0-.54,1l-.1.23h0a15.74,15.74,0,0,0-.58,1.87,2.33,2.33,0,0,1,1.28-1,3.18,3.18,0,0,1,2-.18,8.42,8.42,0,0,1,1.84,1c.86.52,1.69,1.1,2.53,1.64,4,2.53,9.3,2.79,12.38-.9,0-.15.08-.29.1-.44C340.17,147.39,333.05,138,324.23,143.17Z" fill="#5fad00"/><path d="M337.85,151.93l.5-.33a.34.34,0,0,0-.1-.29c-2.41-2.48-5-4.9-8.3-6.12a14.21,14.21,0,0,0-7.41-.73c-.27.31-.51.64-.75,1a12.87,12.87,0,0,1,8.52.71c2.91,1.24,5.23,3.47,7.41,5.71A.36.36,0,0,0,337.85,151.93Z" fill="#297600"/><path d="M297.44,157.32a10.05,10.05,0,0,0-5.38,9.64c.28,7.1,12,.17,15.1-5.83s3.59,2.56,3.59,2.56" fill="#297600"/><path d="M308,154.83a21.19,21.19,0,0,0-6.49.9,15.76,15.76,0,0,0-4,1.58,13,13,0,0,0,2.34,1.24,7.11,7.11,0,0,1,3.78,2.71,5.4,5.4,0,0,1,.45,1.07c.71,2.34.1,5.17,1.06,7.52s2.92,4.42,5.69,4.59c3.3.2,4.81-3,5.46-5.71s1.54-6.48.5-9.3C315.5,156.17,311.09,155,308,154.83Z" fill="#5fad00"/><path d="M312.31,165.92c-1.38-4.49-4.32-8.72-8.61-10.7h-.16l-.2.06-.78.2c5,1.86,8.14,6.79,9.43,11.83,1.64,6.45,1.09,13.43,1.1,20a.35.35,0,0,0,.69,0C313.76,180.3,314.42,172.74,312.31,165.92Z" fill="#297600"/></g></g></svg>