<svg id="Layer_2" data-name="Layer 2" xmlns="http://www.w3.org/2000/svg" viewBox="0 0 400 300" data-imageid="super-man-isometric" imageName="Super Man" class="illustrations_image" style="width: 188px;"><title>141-150</title><ellipse cx="200" cy="237.94" rx="131.85" ry="43.74" fill="#f9c60b"/><ellipse cx="191.62" cy="247.14" rx="52.57" ry="14.2" fill="#e28b5a" opacity="0.74"/><path d="M181.95,116.65s-6.54,34.81-5.95,53.9.92,42.46,2.38,52.81c0,0,6.46,3.2,10.75-.59,0,0,7.46-68.34,7.55-68,1.94,8.8,12.48,49.14,13.45,52.08S218,239,218,239s1.5,5.17,10.92-.67c0,0-2.44-50.33-4.66-63.45-1.67-9.91-9.62-53.54-14.59-58.27" fill="#181816"/><path d="M209.35,119.45s11.2-32.54,6.67-40-22.65-13.3-31.34-12.55-3.12,52.16-1.74,52.54S197.15,128.64,209.35,119.45Z" fill="#68e1fd" class="target-color"/><path d="M197.92,68.94s2.11-6.34,8.3-4.52,50.68,5.7,60.35,12.48-47.58,10-47.58,10Z" fill="#af2b38"/><path d="M216,79.46s49.87-16,62.33,7.4,7.33,60.82,24.92,68.15c0,0-49.59-16.44-66-35.57,0,0,11.13-14.2-13.5-26" fill="#68e1fd" class="target-color"/><path d="M216,79.46s49.87-16,62.33,7.4,7.33,60.82,24.92,68.15c0,0-49.59-16.44-66-35.57,0,0,11.13-14.2-13.5-26" fill="#7c0a1b"/><path d="M185.67,86.5s-1.81-17.78-1.81-19.34a42.39,42.39,0,0,0-14.54,7.43,47.91,47.91,0,0,0-6.14,5.68A15.28,15.28,0,0,0,160,84.48c-.73,1.77-.44,3.92-.16,5.77a44.74,44.74,0,0,0,4.45,12.65,67.38,67.38,0,0,0,8.15,13c1,1.23,4.2,5.75,6.28,5,4.19-1.46,5.93-6.35,5.93-6.35s-1.93-3.81-4-8.51c-1.24-2.79-6.8-9.12-7.55-13.45a21.79,21.79,0,0,1,1.79-2.12C177.64,87.79,182.24,88.3,185.67,86.5Z" fill="#68e1fd" class="target-color"/><path d="M181.13,114.57v7.69s13,9.06,29.37,0l-.82-5.6S198.05,122.6,181.13,114.57Z" fill="#af2b38"/><path d="M227.07,205.91s-2.86,2.87-2.86,2.85c-1.52,0-2,19.36-3.43,20s-9.25-20.81-10.52-20.19l8.42,32.53c-1.46,3.49-3.39,19-1.57,21.78,2.26,3.53,7.58,4,11,2,2.7-1.55,2.85-4.58,2.58-7.39-1-10.36-1.72-20.93-2.23-31.34C228.14,219.52,228.11,212.58,227.07,205.91Z" fill="#68e1fd" class="target-color"/><path d="M191.94,197.08s-4.72,1.16-4.72,1.14c-3.56,1.51-3.91,17.14-5.29,17.82s-3.88-18.88-5.15-18.26c0,0,1.87,27.76.23,30.69-1.83,3.27-13.89,9.69-12.07,12.52a8.18,8.18,0,0,0,11,2.54c4.8-2.62,7.93-8,11.36-9.39,2.94-1.18,1.69-8.81,1.81-11.37C189.33,218.34,192.63,201.47,191.94,197.08Z" fill="#68e1fd" class="target-color"/><path d="M223.23,86.71q-1.31-1.86-2.77-3.6a71.57,71.57,0,0,0-7.41-7l-13.58-5.63q-3.69,17.9-7.67,35.74l19,3.33a32.14,32.14,0,0,0,4.06-2.8L220,112s-7.45,3.44-10.35,4.63,4.13,10.89,4.13,10.89,18-2.06,23.49-8.09c1.51-1.65,1-4.37.49-6.31a43,43,0,0,0-3.88-9.21c-2.35-4.43-5.39-8.44-7.86-12.79Q224.75,88.86,223.23,86.71Z" fill="#68e1fd" class="target-color"/><path d="M187.25,67.16c-.72.85-4.64,12.57-2.22,24.71s15.16,3.46,15.16,3.46,14-17.78,23.43-19.84" fill="#af2b38"/><path d="M185.67,53.88s0,19,7,20.24c7.66,1.36,12-7.34,12-7.34s1-16.79-6.63-18.27S185.89,51.45,185.67,53.88Z" fill="#fbb5ad"/><path d="M186.5,56.23c-2.37-.64-5.19-1.34-6.6-3.57-2.12-3.36.21-6.84,3-8.88,3.39-2.47,7.49-3,11.57-2.27,5.46.93,13.22,3.25,14.72,9.42,2.07,8.52-6.09,19.26-6.09,19.26v-5.3s2.75-3.52,1.29-4.89-2,1.92-2,1.92.62-6.29-3.86-7c-1.85-.29-2.53.74-4,1.55a6.43,6.43,0,0,1-3.43.64A23.32,23.32,0,0,1,186.5,56.23Z" fill="#5c2e2e"/><polygon points="193.19 82.81 185.04 91.86 191.12 107.59 200.19 95.33 193.19 82.81" fill="#fff"/><polygon points="101.88 120.49 106.7 117.37 115.64 122.59 113.7 127.72 101.88 120.49" fill="#f7931e"/><path d="M108,144.33l3.22-10.16-9.33-13.68s11.81,7,11.79,7,3.88-9.42,3.88-9.42l4.15,14.47,11.6,7.86-9.13,2,3.29,14.35-9.71-13.38Z" fill="#af2b38"/><polygon points="121.68 132.5 133.29 140.37 138.23 137.26 126.47 129.3 121.68 132.5" fill="#f7931e"/><polygon points="117.54 118.03 122.42 114.94 126.47 129.3 121.68 132.5 117.54 118.03" fill="#f7931e"/><polygon points="124.16 142.37 127.45 156.72 132.25 153.54 129.44 141.21 124.16 142.37" fill="#f5b00f"/><polygon points="241.27 156.48 246.1 153.35 255.04 158.58 253.1 163.71 241.27 156.48" fill="#f7931e"/><path d="M247.38,180.32l3.22-10.16-9.33-13.68s11.81,7,11.79,7,3.88-9.42,3.88-9.42l4.15,14.47,11.6,7.86-9.13,2,3.29,14.35-9.71-13.38Z" fill="#af2b38"/><polygon points="261.08 168.49 272.69 176.35 277.63 173.25 265.87 165.28 261.08 168.49" fill="#f7931e"/><polygon points="256.93 154.02 261.82 150.93 265.87 165.28 261.08 168.49 256.93 154.02" fill="#f7931e"/><polygon points="263.56 178.36 266.85 192.71 271.65 189.52 268.84 177.2 263.56 178.36" fill="#f5b00f"/><polygon points="214.87 27.5 217.5 25.8 222.37 28.65 221.31 31.44 214.87 27.5" fill="#f7931e"/><path d="M218.2,40.49,220,35l-5.08-7.45s6.43,3.83,6.42,3.79,2.11-5.13,2.11-5.13L225.66,34,232,38.33l-5,1.09,1.79,7.82-5.29-7.29Z" fill="#af2b38"/><polygon points="225.66 34.04 231.98 38.33 234.68 36.64 228.27 32.3 225.66 34.04" fill="#f7931e"/><polygon points="223.4 26.16 226.06 24.48 228.27 32.3 225.66 34.04 223.4 26.16" fill="#f7931e"/><polygon points="227.01 39.42 228.8 47.24 231.42 45.5 229.89 38.79 227.01 39.42" fill="#f5b00f"/></svg>