<svg id="Layer_1" data-name="Layer 1" xmlns="http://www.w3.org/2000/svg" viewBox="0 0 400 300" data-imageid="tennis-two-color" imageName="Tennis" class="illustrations_image" style="width: 188px;"><title>#94_tennis_twocolour</title><path d="M118.73,77.87C97,94.9,84.1,126.16,86.15,158.8c1,16.69,5.8,32.89,18.61,41.58,34.34,23.29,184,23.12,204.37-17.59,21-41.93,13.79-100.31-34-124.83C233.75,36.69,174.88,33.88,118.73,77.87Z" fill="#e6e6e6" opacity="0.3"/><path d="M304,136.53v0a19.54,19.54,0,0,0,8.08-5c6.54-6.73,7.35-16.6,1.79-22s-15.4-4.32-21.94,2.42A19.55,19.55,0,0,0,287,120.2h0a16.88,16.88,0,0,0-.58,3.32c-1.11,5.3-4,15.82-10.54,23.12l1.88,1.73c.07-.07,6.7-6.9,24.1-11.34a16.6,16.6,0,0,0,1.94-.47Zm8.09-25.24c4.55,4.42,3.72,12.67-1.85,18.39a17.13,17.13,0,0,1-6.9,4.38c-.71.16-1.41.34-2.1.51a10.56,10.56,0,0,1-9.33-2.52A10.25,10.25,0,0,1,289,124c.35-1.73.52-2.93.58-3.35a17,17,0,0,1,4.17-7C299.28,107.93,307.5,106.87,312.05,111.29ZM282.43,141.9a56.74,56.74,0,0,0,5-11.91,11.7,11.7,0,0,0,2.63,3.89,12,12,0,0,0,4.39,2.68A66.28,66.28,0,0,0,282.43,141.9Z" fill="#68e1fd" class="target-color"/><ellipse cx="192.1" cy="261.13" rx="107.88" ry="13.59" fill="#e6e6e6" opacity="0.45"/><path d="M216.62,108.59a29.14,29.14,0,0,0-5.9,5,2.34,2.34,0,0,0,.41,3.3,5.16,5.16,0,0,0,5.56.82l4.08-1.38a4.2,4.2,0,0,0,2.42-4.21C223.08,108.92,218.94,106.94,216.62,108.59Z" fill="#f4a28c"/><polygon points="219.86 116.34 211.85 129.38 204.97 124.45 213.57 116.94 219.86 116.34" fill="#f4a28c"/><path d="M216.53,108.33c-.12.47.37.9.64,1.3a19.35,19.35,0,0,0,2.9,3.21,3.88,3.88,0,0,0-3.39,2.61,3.17,3.17,0,0,0,1.34,3.8l4.71-3.72,1.39-1-5.32-7S216.9,106.82,216.53,108.33Z" fill="#24285b"/><path d="M216.49,115s1.44-1.07,2.16.08-1.36,2.72-2.68,1.41Z" fill="#f4a28c"/><path d="M214.22,110.31l-2.22.07a.75.75,0,0,0-.64,1.09l.83,1.62Z" fill="#f4a28c"/><path d="M213.43,117.3a5.59,5.59,0,0,0,3,1.17s-1.83,2.15-5.9,1.4Z" fill="#ce8172" opacity="0.31"/><path d="M161.27,248.48s.07,4.28-3.23,5.86-2.94,5.25.46,5,9.81-7.22,9.81-7.22l-2.64-6.14Z" fill="#24285b"/><path d="M201.83,255.69s.06,4.06-3.07,5.56-2.78,5,.44,4.7,9.31-6.85,9.31-6.85L206,253.28Z" fill="#24285b"/><path d="M113.15,134.29a6.47,6.47,0,0,0-6.47-6.47,7.18,7.18,0,0,0-1,.09A8.7,8.7,0,0,0,98,123.32l-.32,0a10.34,10.34,0,1,0-20.06,0l-.31,0a8.72,8.72,0,1,0,0,17.43h30.24v-.06A6.47,6.47,0,0,0,113.15,134.29Z" fill="#e6e6e6"/><path d="M315.83,72.92a7,7,0,0,0-8.22-7,9.54,9.54,0,0,0-8.41-5l-.35,0a11.34,11.34,0,1,0-22,0l-.35,0a9.55,9.55,0,1,0,0,19.1h33.15v-.07A7.08,7.08,0,0,0,315.83,72.92Z" fill="#e6e6e6"/><path d="M191.68,103.28a55.67,55.67,0,0,0,25.07,29,82.76,82.76,0,0,1,10.5,6.77c11.7,9,15.92,32.48,15.92,32.48l-20.28,11.39-6.32-12.43s-15.86,12.4-20,25.5L161.4,184.76s-.14-26.5,6.07-45.35a57,57,0,0,0,.76-32.75l-1-3.78,21.5-7.4Z" fill="#68e1fd" class="target-color"/><path d="M161.4,184.76l-12.6,17A18.33,18.33,0,0,0,147.17,221l14.23,28,4.49-2.55-7-22.26A14.9,14.9,0,0,1,163,208.71l9.92-9.11,3.86,22.18a26.68,26.68,0,0,0,6.4,13.2l19.15,21.44,3.41-3-8.46-14A42.51,42.51,0,0,1,193,204.63a48.65,48.65,0,0,1,3.59-8.63Z" fill="#f4a28c"/><path d="M161.4,184.76l-15.47,16,12.78,14.36,14.62-13,2.6,22.18h18A77.72,77.72,0,0,1,196.61,196Z" fill="#24285b"/><path d="M224.12,114.51s-7.53-3.36-9.49-10a.65.65,0,0,1,1.08-.63l2.63,2.61s3.22-2.87,5.78-.43S228.43,111.2,224.12,114.51Z" fill="#ffd200"/><path d="M225.38,181.54s10.88,19.29,21.1,14.46,26.85-36.63,26.85-36.63l-4.53-2.76s-14.37,15-22.25,21.73a2.93,2.93,0,0,1-4.68-1.32l-1.33-4Z" fill="#f4a28c"/><rect x="270.15" y="142.96" width="5.68" height="17.05" transform="translate(182.8 -147.41) rotate(44.18)" fill="#24285b"/><path d="M273.33,159.37s2-7.38-2.27-9.94S263.68,155.39,273.33,159.37Z" fill="#f4a28c"/><path d="M182.5,191.5s16.37-5.1,19.79-21.91,15.34-17.46,21-7.67,9.52,15.46,9.52,15.46l-9.9,5.55-6.32-12.43s-17.55,14-20,25.5Z" opacity="0.08"/><polygon points="155.29 236.97 162.16 234.65 165.89 246.44 161.41 248.99 155.29 236.97" fill="#68e1fd" class="target-color"/><polygon points="192.25 245.19 197.24 239.47 205.7 253.46 202.29 256.42 192.25 245.19" fill="#68e1fd" class="target-color"/><path d="M169.52,102.08s-6.8-17-5.74-31.48,5.75-23,1.28-30.66,8.3-11.07,8.94-2.13,1.39,17.46,1.44,26.19,11,32.26,11,32.26Z" fill="#f4a28c"/><circle cx="172.25" cy="29.35" r="7.5" fill="#ffd200"/><circle cx="183.25" cy="137" r="4.89" fill="#fff" opacity="0.55"/><path d="M165.66,33.15s5.24,1.42,6.07-3.25,5.31-5.3,8-3.38" fill="none" stroke="#fff" stroke-miterlimit="10"/><polyline points="241.31 234.24 241.31 222.82 248.89 220.82" fill="none" stroke="#24285b" stroke-miterlimit="10" stroke-width="2"/><rect x="234.61" y="238.23" width="13.4" height="24.59" fill="#ffd200"/><path d="M234.61,238.23s-.25-7.45,6.7-7.95,6.71,7.95,6.71,7.95Z" fill="#ffd200"/><path d="M234.61,238.23s-.25-7.45,6.7-7.95,6.71,7.95,6.71,7.95Z" fill="#fff" opacity="0.39"/><rect x="242.6" y="255.45" width="21.5" height="7.37" fill="#e6e6e6"/><rect x="242.6" y="248.08" width="21.5" height="7.37" fill="#c9c9c9"/></svg>