<svg width="18" height="17" viewBox="0 0 18 17" fill="none" xmlns="http://www.w3.org/2000/svg">
<path d="M5.85002 13.825L9.00002 11.925L12.15 13.85L11.325 10.25L14.1 7.85001L10.45 7.52501L9.00002 4.12501L7.55002 7.50001L3.90001 7.82501L6.67501 10.25L5.85002 13.825ZM9.00002 14.275L4.85002 16.775C4.66668 16.8917 4.47502 16.9417 4.27501 16.925C4.07501 16.9083 3.90001 16.8417 3.75002 16.725C3.60001 16.6083 3.48335 16.4625 3.40002 16.2875C3.31668 16.1125 3.30002 15.9167 3.35002 15.7L4.45002 10.975L0.775015 7.80001C0.608348 7.65001 0.504182 7.47918 0.462515 7.28751C0.420848 7.09585 0.433348 6.90835 0.500015 6.72501C0.566682 6.54168 0.666682 6.39168 0.800015 6.27501C0.933348 6.15835 1.11668 6.08335 1.35002 6.05001L6.20002 5.62501L8.07502 1.17501C8.15835 0.975012 8.28752 0.825012 8.46252 0.725012C8.63752 0.625012 8.81668 0.575012 9.00002 0.575012C9.18335 0.575012 9.36252 0.625012 9.53752 0.725012C9.71252 0.825012 9.84168 0.975012 9.92502 1.17501L11.8 5.62501L16.65 6.05001C16.8833 6.08335 17.0667 6.15835 17.2 6.27501C17.3333 6.39168 17.4333 6.54168 17.5 6.72501C17.5667 6.90835 17.5792 7.09585 17.5375 7.28751C17.4958 7.47918 17.3917 7.65001 17.225 7.80001L13.55 10.975L14.65 15.7C14.7 15.9167 14.6833 16.1125 14.6 16.2875C14.5167 16.4625 14.4 16.6083 14.25 16.725C14.1 16.8417 13.925 16.9083 13.725 16.925C13.525 16.9417 13.3333 16.8917 13.15 16.775L9.00002 14.275Z" fill="#008BCC"/>
</svg>
