<svg id="Layer_1" data-name="Layer 1" xmlns="http://www.w3.org/2000/svg" viewBox="0 0 400 300" data-imageid="voting-two-color" imageName="Voting" class="illustrations_image" style="width: 188px;"><path d="M161.39,81.52a26.91,26.91,0,0,0,19.18-.6c10.47-4.26,1.59-13.49,1.54-13.45s-10.3,1-10.3,1Z" fill="#f4a28c"/><path d="M161.39,81.52a26.91,26.91,0,0,0,19.18-.6c10.47-4.26,1.59-13.49,1.54-13.45s-10.3,1-10.3,1Z" opacity="0.04"/><ellipse cx="206.45" cy="235.95" rx="112.51" ry="18.21" fill="#e6e6e6" opacity="0.39"/><rect x="144.57" y="158.97" width="127.15" height="76.99" fill="#ffd200"/><rect x="135.04" y="146.73" width="146.72" height="12.23" fill="#ffd200"/><polygon points="135.04 146.73 155.55 107.78 263.81 107.78 281.77 146.73 135.04 146.73" fill="#ffd200"/><polygon points="135.04 146.73 155.55 107.78 263.81 107.78 281.77 146.73 135.04 146.73" opacity="0.04"/><rect x="144.57" y="158.97" width="127.15" height="8.3" opacity="0.04"/><path d="M178.71,189.31l4.53,14.22h.17l4.53-14.22h4.39L185.88,208h-5.1l-6.46-18.71Z" fill="#24285b"/><path d="M210.72,198.67a10.9,10.9,0,0,1-1.15,5.21,8,8,0,0,1-3.15,3.27,9.41,9.41,0,0,1-8.94,0,8.12,8.12,0,0,1-3.13-3.28,12.35,12.35,0,0,1,0-10.41,8.12,8.12,0,0,1,3.13-3.28,9.41,9.41,0,0,1,8.94,0,8.1,8.1,0,0,1,3.15,3.28A10.87,10.87,0,0,1,210.72,198.67Zm-4,0a8.34,8.34,0,0,0-.59-3.35,4.52,4.52,0,0,0-1.66-2.06,4.76,4.76,0,0,0-5,0,4.52,4.52,0,0,0-1.66,2.06,9.78,9.78,0,0,0,0,6.69,4.5,4.5,0,0,0,1.66,2.07,4.81,4.81,0,0,0,5,0,4.5,4.5,0,0,0,1.66-2.07A8.29,8.29,0,0,0,206.71,198.67Z" fill="#24285b"/><path d="M212.1,192.57v-3.26h15.37v3.26h-5.73V208h-3.91V192.57Z" fill="#24285b"/><path d="M230,208V189.31h12.61v3.26H234V197h8v3.26h-8v4.47h8.69V208Z" fill="#24285b"/><polygon points="60.23 72.07 140.91 58.11 146.09 93.25 60.23 123.64 60.23 72.07" fill="#24285b"/><polygon points="248.4 127.56 169 127.56 170.72 121.44 246.81 121.44 248.4 127.56" fill="#24285b"/><polygon points="141.41 61.49 150.11 59.47 154.53 87.85 145.59 89.84 141.41 61.49" fill="#68e1fd" class="target-color"/><polygon points="235.38 127.56 184.49 127.56 169.98 68.03 218.01 56.32 235.38 127.56" fill="#68e1fd" class="target-color"/><path d="M150.12,59.55l3.49,22.37s17.74.82,23.62-7.87,6.63-10.65,15.32-3.66,19.91,6,22.21,0-10-21.87-21.45-24.16S150.12,59.55,150.12,59.55Z" fill="#f4a28c"/><rect x="181.21" y="81.87" width="10.28" height="10.28" transform="translate(-15.36 46.91) rotate(-13.79)" fill="#24285b"/><rect x="195.36" y="79.48" width="22.16" height="5.04" transform="translate(-13.59 51.55) rotate(-13.79)" fill="#fff" opacity="0.3"/><rect x="185.46" y="97.87" width="10.28" height="10.28" transform="translate(-19.05 48.38) rotate(-13.79)" fill="#24285b"/><rect x="199.62" y="95.48" width="22.16" height="5.04" transform="translate(-17.28 53.03) rotate(-13.79)" fill="#fff" opacity="0.3"/><polyline points="188.62 103.38 191.25 105.3 192.62 100.22" fill="none" stroke="#fff" stroke-linecap="round" stroke-linejoin="round"/><rect x="189.8" y="113.86" width="10.28" height="10.28" transform="translate(-22.74 49.88) rotate(-13.79)" fill="#24285b"/><rect x="203.95" y="111.48" width="22.16" height="5.04" transform="translate(-20.97 54.52) rotate(-13.79)" fill="#fff" opacity="0.3"/><polygon points="183.74 124.5 233.47 119.72 235.38 127.56 184.49 127.56 183.74 124.5" opacity="0.04"/><circle cx="133.94" cy="69.14" r="3.06" fill="#fff"/></svg>